<svg xmlns="http://www.w3.org/2000/svg" xmlns:v="https://svgstorm.com"
viewBox = "0 0 432 432"
width="432"
height="432">
<g fill="None" fill-opacity="0.0" stroke="#000000" stroke-opacity="0.00" stroke-width="0.3"><path d="
M 0.00 195.00 
C 8.03 95.59 95.66 8.02 195.00 0.00
L 0.00 0.00
L 0.00 195.00 Z"/>
</g>
<g fill="None" fill-opacity="0.0" stroke="#FCF7F3" stroke-opacity="0.99" stroke-width="0.3"><path d="
M 0.00 195.00 
L 0.00 237.00
C 7.28 325.82 76.54 403.17 162.00 426.00
C 164.84 418.15 175.65 421.49 183.00 419.00 C 190.36 416.52 205.08 422.74 212.00 419.00
C 213.04 416.03 214.24 414.47 214.00 411.00
C 213.29 408.15 210.97 400.54 208.00 399.00
C 201.92 399.34 187.40 390.68 197.00 384.00
C 191.07 382.63 184.10 382.42 178.00 382.00
C 146.33 379.84 127.24 349.75 96.00 347.00
C 87.31 346.24 77.85 343.34 73.75 335.25 C 69.64 327.17 66.31 314.12 77.00 311.00
C 75.00 309.89 75.77 308.19 75.00 306.00
C 74.21 303.76 73.18 301.03 72.00 299.00
C 60.98 287.19 30.45 273.29 39.00 253.00
C 43.25 242.91 59.69 251.96 69.00 251.00 C 78.31 250.04 93.77 252.35 104.00 252.00 C 114.23 251.65 128.65 252.34 138.22 250.22 C 147.79 248.11 158.66 246.69 167.01 243.01 C 175.35 239.32 183.84 236.32 190.25 230.25 C 196.65 224.17 204.12 218.55 208.00 211.00
C 206.58 211.98 202.79 212.77 201.00 213.00
C 200.51 213.06 199.50 213.02 199.00 213.00
C 192.39 216.37 188.70 215.73 182.00 213.00
C 179.32 211.91 176.72 210.91 174.00 210.00
C 169.87 208.62 165.32 206.99 161.00 209.00
C 155.93 205.22 166.01 199.98 162.00 199.00
C 158.42 200.21 155.25 202.29 154.00 206.00
C 153.72 208.76 155.80 210.38 156.00 213.00
C 154.12 212.53 151.07 214.06 150.00 212.00
C 139.34 209.31 133.27 200.36 135.00 189.00
C 135.53 185.51 137.91 182.75 140.00 180.00
C 134.15 180.29 132.83 187.12 129.00 190.00
C 128.50 192.20 130.12 195.62 128.00 197.00
C 124.04 188.71 126.69 177.87 135.00 173.00
C 136.17 171.90 136.80 169.45 139.00 170.00
C 138.92 168.74 136.94 169.44 137.00 168.00
C 133.16 166.66 128.95 165.95 125.00 165.00
C 109.75 163.20 94.45 168.65 80.00 167.00
C 78.04 166.78 76.73 167.04 75.00 166.00
C 71.81 164.09 83.20 153.54 90.22 153.22 C 97.25 152.91 111.58 151.03 120.07 152.93 C 128.57 154.83 142.35 152.13 151.00 152.00
C 145.52 141.59 150.91 131.97 157.25 123.25 C 163.58 114.52 176.65 116.07 186.00 114.00
C 187.48 112.83 190.78 111.89 192.00 110.00
C 193.82 106.67 193.85 102.81 194.00 99.00
C 194.37 89.30 194.30 80.54 204.00 76.00
C 218.31 69.31 231.74 69.55 242.25 82.75 C 252.75 95.95 258.42 105.09 257.00 123.00
C 258.42 122.82 260.78 122.79 262.00 122.00
C 262.27 121.83 262.68 121.20 263.00 121.00
C 270.15 111.81 279.50 104.35 281.32 92.32 C 283.14 80.29 291.62 64.86 289.00 52.00
C 286.01 48.73 285.70 41.53 280.00 41.00
C 276.35 51.38 267.94 41.83 275.00 36.00
C 271.15 36.25 267.90 39.36 264.00 37.00
C 265.13 34.46 265.12 32.07 263.00 30.00
C 267.78 32.04 272.69 33.57 278.00 34.00
C 275.49 29.53 272.35 24.98 268.00 22.00
C 267.77 23.13 266.87 26.04 266.00 27.00
C 259.46 23.13 259.45 17.00 264.75 11.75 C 270.05 6.50 279.45 15.65 272.00 19.00
C 275.16 24.49 278.11 30.53 284.00 34.00
C 283.50 28.94 285.68 24.59 287.00 20.00
C 292.10 22.88 284.86 35.28 295.00 34.00
C 294.05 38.50 289.48 41.69 291.00 47.00
C 291.89 48.65 293.83 52.12 294.00 54.00
C 297.67 56.84 306.72 58.90 300.00 66.00
C 299.75 66.26 299.89 67.52 300.00 68.00
C 300.66 70.96 302.39 73.73 302.00 77.00
C 300.72 77.27 299.28 76.23 299.00 75.00
C 298.86 74.78 298.00 75.00 298.00 75.00
C 298.22 75.38 298.00 76.00 298.00 76.00
C 298.00 86.94 297.93 100.37 293.00 110.00
C 288.68 118.44 281.82 132.13 272.00 139.00
C 271.78 139.38 272.00 140.00 272.00 140.00
C 271.20 141.64 269.57 143.19 268.00 144.00
C 268.68 146.42 270.81 147.92 272.00 150.00
C 276.50 153.69 278.64 156.49 280.00 162.00
C 280.79 165.20 282.03 170.78 278.00 173.00
C 275.34 169.05 280.20 164.09 277.00 160.00
C 275.21 160.59 275.53 160.04 275.00 162.00
C 274.06 165.50 274.60 170.87 274.00 174.00
C 273.49 180.48 269.96 184.92 265.00 189.00
C 262.79 190.81 261.13 192.54 258.00 193.00
C 255.92 193.88 255.71 195.92 256.00 198.00
C 256.07 198.49 256.00 199.00 256.00 199.00
C 266.42 212.00 275.53 226.72 290.70 235.30 C 305.86 243.89 325.95 249.99 341.08 255.92 C 356.20 261.86 375.65 288.90 353.00 294.00
C 344.40 295.94 341.35 293.10 334.00 290.00
C 332.71 289.83 330.34 289.36 329.00 289.00
C 337.43 296.31 348.95 319.70 344.01 333.01 C 339.07 346.31 316.36 353.38 305.00 358.00
C 294.22 362.39 282.27 363.24 271.00 367.00
C 262.94 369.69 256.58 374.94 248.00 377.00
C 244.11 378.66 239.87 380.82 236.00 383.00
C 236.22 385.13 235.53 386.16 235.00 388.00
C 234.43 389.99 233.51 391.99 233.00 394.00
C 230.69 403.19 224.15 412.55 233.00 419.00
C 245.44 421.76 263.57 414.28 272.00 425.00
C 356.33 400.79 425.08 325.99 432.00 237.00
L 432.00 195.00
C 423.97 95.59 336.34 8.02 237.00 0.00
L 195.00 0.00
C 95.66 8.02 8.03 95.59 0.00 195.00
M 284.00 27.00 
C 281.12 27.23 280.21 22.89 277.00 24.00
C 274.86 13.86 286.90 20.18 284.00 27.00
M 261.00 30.00 
C 249.59 30.60 262.87 17.81 261.00 30.00 Z"/>
</g>
<g fill="None" fill-opacity="0.0" stroke="#000000" stroke-opacity="0.00" stroke-width="0.3"><path d="
M 432.00 195.00 
L 432.00 0.00
L 237.00 0.00
C 336.34 8.02 423.97 95.59 432.00 195.00 Z"/>
</g>
<g fill="None" fill-opacity="0.0" stroke="#E6C9B8" stroke-opacity="0.97" stroke-width="0.3"><path d="
M 268.00 22.00 
C 268.17 21.12 265.91 18.07 269.00 18.00
C 268.56 17.26 269.35 15.79 269.00 15.00
C 266.10 14.10 264.94 17.92 262.00 17.00
C 262.50 12.39 268.15 11.54 272.00 12.00
C 271.93 14.41 272.44 16.95 271.00 19.00
C 271.48 19.09 272.00 19.00 272.00 19.00
C 279.45 15.65 270.05 6.50 264.75 11.75 C 259.45 17.00 259.46 23.13 266.00 27.00
C 266.87 26.04 267.77 23.13 268.00 22.00 Z"/>
</g>
<g fill="None" fill-opacity="0.0" stroke="#D09F8B" stroke-opacity="0.96" stroke-width="0.3"><path d="
M 269.00 18.00 
C 269.22 18.37 270.59 18.93 271.00 19.00
C 272.44 16.95 271.93 14.41 272.00 12.00
C 268.15 11.54 262.50 12.39 262.00 17.00
C 264.94 17.92 266.10 14.10 269.00 15.00
C 269.35 15.79 268.56 17.26 269.00 18.00 Z"/>
</g>
<g fill="None" fill-opacity="0.0" stroke="#C8CBBF" stroke-opacity="0.96" stroke-width="0.3"><path d="
M 268.00 22.00 
C 272.35 24.98 275.49 29.53 278.00 34.00
C 272.69 33.57 267.78 32.04 263.00 30.00
C 265.12 32.07 265.13 34.46 264.00 37.00
C 267.90 39.36 271.15 36.25 275.00 36.00
C 267.94 41.83 276.35 51.38 280.00 41.00
C 285.70 41.53 286.01 48.73 289.00 52.00
C 289.47 52.51 290.54 52.60 291.00 53.00
C 287.54 47.06 283.69 41.19 281.00 35.00
C 285.77 37.82 288.30 42.91 291.00 47.00
C 289.48 41.69 294.05 38.50 295.00 34.00
C 284.86 35.28 292.10 22.88 287.00 20.00
C 285.68 24.59 283.50 28.94 284.00 34.00
C 278.11 30.53 275.16 24.49 272.00 19.00
C 272.00 19.00 271.48 19.09 271.00 19.00
C 270.59 18.93 269.22 18.37 269.00 18.00
C 265.91 18.07 268.17 21.12 268.00 22.00 Z"/>
</g>
<g fill="None" fill-opacity="0.0" stroke="#DFB9AB" stroke-opacity="0.97" stroke-width="0.3"><path d="
M 284.00 27.00 
C 286.90 20.18 274.86 13.86 277.00 24.00
C 280.21 22.89 281.12 27.23 284.00 27.00 Z"/>
</g>
<g fill="None" fill-opacity="0.0" stroke="#D1BCAB" stroke-opacity="0.97" stroke-width="0.3"><path d="
M 261.00 30.00 
C 262.87 17.81 249.59 30.60 261.00 30.00 Z"/>
</g>
<g fill="None" fill-opacity="0.0" stroke="#93998B" stroke-opacity="0.96" stroke-width="0.3"><path d="
M 291.00 53.00 
C 291.74 53.64 292.03 53.82 292.00 55.00
C 292.30 55.58 293.28 56.69 294.00 57.00
C 294.00 56.00 294.00 55.00 294.00 54.00
C 293.83 52.12 291.89 48.65 291.00 47.00
C 288.30 42.91 285.77 37.82 281.00 35.00
C 283.69 41.19 287.54 47.06 291.00 53.00 Z"/>
</g>
<g fill="None" fill-opacity="0.0" stroke="#F3DFCD" stroke-opacity="0.93" stroke-width="0.3"><path d="
M 263.00 121.00 
C 272.48 115.14 280.52 104.91 282.78 93.78 C 285.03 82.64 291.67 66.59 292.00 55.00
C 292.03 53.82 291.74 53.64 291.00 53.00
C 290.54 52.60 289.47 52.51 289.00 52.00
C 291.62 64.86 283.14 80.29 281.32 92.32 C 279.50 104.35 270.15 111.81 263.00 121.00 Z"/>
</g>
<g fill="None" fill-opacity="0.0" stroke="#DBAC86" stroke-opacity="0.99" stroke-width="0.3"><path d="
M 292.00 55.00 
C 291.67 66.59 285.03 82.64 282.78 93.78 C 280.52 104.91 272.48 115.14 263.00 121.00
C 262.68 121.20 262.27 121.83 262.00 122.00
C 269.03 123.62 276.83 130.56 272.00 139.00
C 281.82 132.13 288.68 118.44 293.00 110.00
C 293.01 109.94 291.92 100.07 293.98 94.98 C 296.03 89.88 295.80 81.05 298.00 76.00
C 298.00 76.00 298.22 75.38 298.00 75.00
C 296.60 72.55 297.03 69.80 297.00 67.00
C 298.28 67.53 298.86 66.03 300.00 66.00
C 306.72 58.90 297.67 56.84 294.00 54.00
C 294.00 55.00 294.00 56.00 294.00 57.00
C 293.28 56.69 292.30 55.58 292.00 55.00 Z"/>
</g>
<g fill="None" fill-opacity="0.0" stroke="#AB9A7D" stroke-opacity="0.95" stroke-width="0.3"><path d="
M 298.00 75.00 
C 298.00 75.00 298.86 74.78 299.00 75.00
C 297.22 71.97 297.94 70.17 300.00 68.00
C 299.89 67.52 299.75 66.26 300.00 66.00
C 298.86 66.03 298.28 67.53 297.00 67.00
C 297.03 69.80 296.60 72.55 298.00 75.00 Z"/>
</g>
<g fill="None" fill-opacity="0.0" stroke="#8D9980" stroke-opacity="0.93" stroke-width="0.3"><path d="
M 299.00 75.00 
C 299.28 76.23 300.72 77.27 302.00 77.00
C 302.39 73.73 300.66 70.96 300.00 68.00
C 297.94 70.17 297.22 71.97 299.00 75.00 Z"/>
</g>
<g fill="None" fill-opacity="0.0" stroke="#4B382A" stroke-opacity="0.99" stroke-width="0.3"><path d="
M 204.00 76.00 
C 196.34 81.25 195.11 91.25 194.00 99.00
C 193.85 102.81 193.82 106.67 192.00 110.00
C 190.68 112.42 187.67 115.39 185.00 116.00
C 179.76 118.40 169.88 114.84 164.93 118.93 C 159.97 123.01 155.27 123.49 153.08 130.08 C 150.88 136.66 152.64 144.94 152.00 152.00
C 152.57 152.38 153.39 152.61 154.00 153.00
C 155.86 151.04 153.23 143.91 154.00 141.00 C 154.77 138.09 154.01 133.05 155.00 130.00
C 155.92 127.16 159.11 123.35 162.00 122.00
C 163.09 121.49 164.75 121.21 166.00 121.00
C 170.64 119.30 175.41 118.49 181.00 119.00
C 183.65 118.24 187.79 115.89 190.00 118.00
C 187.81 119.69 185.46 120.82 183.00 122.00
C 172.19 126.35 158.80 127.28 158.00 142.00
C 157.81 145.54 157.68 149.47 158.00 153.00
C 158.50 153.00 159.00 153.00 159.00 153.00
C 173.04 148.09 192.00 144.51 207.00 144.00
C 207.94 143.97 209.07 144.18 210.00 144.00
C 211.43 143.72 213.63 142.55 215.00 142.00
C 219.56 138.52 218.32 130.25 216.00 126.00
C 211.19 120.15 202.24 118.62 202.00 111.00
C 204.83 111.52 208.95 110.88 208.00 107.00
C 209.95 103.31 212.32 101.19 215.00 98.00
C 218.15 94.24 221.15 89.01 221.00 84.00
C 234.16 86.62 238.60 93.21 242.00 105.00 C 245.40 116.79 232.48 128.19 240.00 136.00
C 243.82 130.11 248.16 137.80 250.00 140.00
C 249.85 139.55 250.11 138.47 250.00 138.00
C 248.00 129.34 251.41 121.66 252.00 113.00
C 252.42 106.86 250.74 101.58 249.00 96.00
C 252.89 98.29 253.89 103.04 255.00 107.00
C 256.06 114.93 253.43 122.58 252.00 130.00
C 250.94 147.82 270.62 144.95 277.00 158.00
C 277.20 158.40 277.00 159.00 277.00 159.00
C 279.68 161.05 278.92 164.86 279.00 168.00
C 280.87 166.86 279.61 163.87 280.00 162.00
C 278.64 156.49 276.50 153.69 272.00 150.00
C 270.77 148.99 269.38 147.72 268.00 147.00
C 267.61 146.79 267.00 147.00 267.00 147.00
C 263.42 145.25 259.38 140.35 258.00 137.00
C 255.95 132.02 256.59 128.21 257.00 123.00
C 258.42 105.09 252.75 95.95 242.25 82.75 C 231.74 69.55 218.31 69.31 204.00 76.00
M 202.00 89.00 
C 201.72 91.93 201.49 95.38 205.00 96.00
C 201.54 108.92 193.53 97.67 200.00 90.00
C 200.81 88.08 201.91 85.81 204.00 85.00
C 203.85 86.41 203.35 88.34 202.00 89.00 Z"/>
</g>
<g fill="None" fill-opacity="0.0" stroke="#A1978E" stroke-opacity="0.92" stroke-width="0.3"><path d="
M 194.00 99.00 
C 195.11 91.25 196.34 81.25 204.00 76.00
C 194.30 80.54 194.37 89.30 194.00 99.00 Z"/>
</g>
<g fill="None" fill-opacity="0.0" stroke="#EED6C2" stroke-opacity="0.93" stroke-width="0.3"><path d="
M 293.00 110.00 
C 297.93 100.37 298.00 86.94 298.00 76.00
C 295.80 81.05 296.03 89.88 293.98 94.98 C 291.92 100.07 293.01 109.94 293.00 110.00 Z"/>
</g>
<g fill="None" fill-opacity="0.0" stroke="#D29F79" stroke-opacity="0.99" stroke-width="0.3"><path d="
M 215.00 98.00 
C 214.13 102.82 216.90 99.46 220.00 102.00
C 215.98 103.67 211.79 104.69 208.00 107.00
C 208.95 110.88 204.83 111.52 202.00 111.00
C 202.24 118.62 211.19 120.15 216.00 126.00
C 218.92 129.56 221.25 136.84 217.00 141.00
C 220.36 141.64 222.87 150.43 229.02 148.98 C 235.18 147.52 238.62 144.14 237.00 137.00
C 242.88 136.95 243.46 144.97 248.00 147.00
C 247.12 144.14 245.94 141.40 244.00 139.00
C 242.50 137.14 241.77 137.13 240.00 136.00
C 232.48 128.19 245.40 116.79 242.00 105.00 C 238.60 93.21 234.16 86.62 221.00 84.00
C 221.15 89.01 218.15 94.24 215.00 98.00
M 238.00 97.00 
C 234.71 96.99 232.07 99.12 229.00 100.00
C 229.03 96.11 235.73 94.66 238.00 97.00
M 238.00 102.00 
C 236.46 103.25 233.45 105.44 232.00 103.00
C 233.26 102.12 236.75 99.78 238.00 102.00
M 220.00 107.00 
C 219.02 110.03 215.36 108.70 213.00 109.00
C 213.98 105.97 217.64 107.30 220.00 107.00
M 233.00 118.00 
C 233.71 121.69 225.85 122.54 226.00 119.00
C 228.49 119.29 230.39 117.36 233.00 118.00 Z"/>
</g>
<g fill="None" fill-opacity="0.0" stroke="#83725D" stroke-opacity="0.93" stroke-width="0.3"><path d="
M 200.00 90.00 
C 200.30 89.48 201.61 89.33 202.00 89.00
C 203.35 88.34 203.85 86.41 204.00 85.00
C 201.91 85.81 200.81 88.08 200.00 90.00 Z"/>
</g>
<g fill="None" fill-opacity="0.0" stroke="#B38173" stroke-opacity="0.96" stroke-width="0.3"><path d="
M 200.00 90.00 
C 193.53 97.67 201.54 108.92 205.00 96.00
C 201.49 95.38 201.72 91.93 202.00 89.00
C 201.61 89.33 200.30 89.48 200.00 90.00 Z"/>
</g>
<g fill="None" fill-opacity="0.0" stroke="#916343" stroke-opacity="0.95" stroke-width="0.3"><path d="
M 238.00 97.00 
C 235.73 94.66 229.03 96.11 229.00 100.00
C 232.07 99.12 234.71 96.99 238.00 97.00 Z"/>
</g>
<g fill="None" fill-opacity="0.0" stroke="#7C664C" stroke-opacity="0.95" stroke-width="0.3"><path d="
M 252.00 113.00 
C 252.37 110.93 253.79 107.75 253.00 105.00
C 254.26 105.08 253.56 107.06 255.00 107.00
C 253.89 103.04 252.89 98.29 249.00 96.00
C 250.74 101.58 252.42 106.86 252.00 113.00 Z"/>
</g>
<g fill="None" fill-opacity="0.0" stroke="#8B6248" stroke-opacity="0.95" stroke-width="0.3"><path d="
M 208.00 107.00 
C 211.79 104.69 215.98 103.67 220.00 102.00
C 216.90 99.46 214.13 102.82 215.00 98.00
C 212.32 101.19 209.95 103.31 208.00 107.00 Z"/>
</g>
<g fill="None" fill-opacity="0.0" stroke="#7B4F2F" stroke-opacity="0.95" stroke-width="0.3"><path d="
M 238.00 102.00 
C 236.75 99.78 233.26 102.12 232.00 103.00
C 233.45 105.44 236.46 103.25 238.00 102.00 Z"/>
</g>
<g fill="None" fill-opacity="0.0" stroke="#B99E7B" stroke-opacity="0.96" stroke-width="0.3"><path d="
M 252.00 113.00 
C 251.41 121.66 248.00 129.34 250.00 138.00
C 250.86 135.98 251.61 132.04 252.00 130.00
C 253.43 122.58 256.06 114.93 255.00 107.00
C 253.56 107.06 254.26 105.08 253.00 105.00
C 253.79 107.75 252.37 110.93 252.00 113.00 Z"/>
</g>
<g fill="None" fill-opacity="0.0" stroke="#704422" stroke-opacity="0.96" stroke-width="0.3"><path d="
M 220.00 107.00 
C 217.64 107.30 213.98 105.97 213.00 109.00
C 215.36 108.70 219.02 110.03 220.00 107.00 Z"/>
</g>
<g fill="None" fill-opacity="0.0" stroke="#766A5F" stroke-opacity="0.93" stroke-width="0.3"><path d="
M 186.00 114.00 
C 185.69 114.24 185.21 115.90 185.00 116.00
C 187.67 115.39 190.68 112.42 192.00 110.00
C 190.78 111.89 187.48 112.83 186.00 114.00 Z"/>
</g>
<g fill="None" fill-opacity="0.0" stroke="#AA9F95" stroke-opacity="0.93" stroke-width="0.3"><path d="
M 151.00 152.00 
C 151.00 152.02 152.00 152.00 152.00 152.00
C 152.64 144.94 150.88 136.66 153.08 130.08 C 155.27 123.49 159.97 123.01 164.93 118.93 C 169.88 114.84 179.76 118.40 185.00 116.00
C 185.21 115.90 185.69 114.24 186.00 114.00
C 176.65 116.07 163.58 114.52 157.25 123.25 C 150.91 131.97 145.52 141.59 151.00 152.00 Z"/>
</g>
<g fill="None" fill-opacity="0.0" stroke="#978169" stroke-opacity="0.95" stroke-width="0.3"><path d="
M 181.00 119.00 
C 180.87 119.04 181.00 120.00 181.00 120.00
C 183.58 120.11 183.45 122.09 183.00 122.00
C 185.46 120.82 187.81 119.69 190.00 118.00
C 187.79 115.89 183.65 118.24 181.00 119.00 Z"/>
</g>
<g fill="None" fill-opacity="0.0" stroke="#F0C2B4" stroke-opacity="0.95" stroke-width="0.3"><path d="
M 233.00 118.00 
C 230.39 117.36 228.49 119.29 226.00 119.00
C 225.85 122.54 233.71 121.69 233.00 118.00 Z"/>
</g>
<g fill="None" fill-opacity="0.0" stroke="#6E5941" stroke-opacity="0.96" stroke-width="0.3"><path d="
M 166.00 121.00 
C 171.00 120.17 175.86 120.46 181.00 120.00
C 181.00 120.00 180.87 119.04 181.00 119.00
C 175.41 118.49 170.64 119.30 166.00 121.00 Z"/>
</g>
<g fill="None" fill-opacity="0.0" stroke="#D3B89A" stroke-opacity="0.97" stroke-width="0.3"><path d="
M 166.00 121.00 
C 164.75 121.21 163.09 121.49 162.00 122.00
C 160.33 122.96 155.65 128.50 155.00 130.00
C 154.01 133.05 154.77 138.09 154.00 141.00 C 153.23 143.91 155.86 151.04 154.00 153.00
C 155.56 153.99 155.54 155.74 157.00 153.00
C 156.65 149.14 157.49 145.12 158.00 142.00
C 158.80 127.28 172.19 126.35 183.00 122.00
C 183.45 122.09 183.58 120.11 181.00 120.00
C 175.86 120.46 171.00 120.17 166.00 121.00 Z"/>
</g>
<g fill="None" fill-opacity="0.0" stroke="#77624A" stroke-opacity="0.92" stroke-width="0.3"><path d="
M 155.00 130.00 
C 155.65 128.50 160.33 122.96 162.00 122.00
C 159.11 123.35 155.92 127.16 155.00 130.00 Z"/>
</g>
<g fill="None" fill-opacity="0.0" stroke="#C97762" stroke-opacity="0.99" stroke-width="0.3"><path d="
M 257.00 123.00 
C 256.59 128.21 255.95 132.02 258.00 137.00
C 259.91 140.65 264.56 143.52 267.00 147.00
C 267.00 147.00 267.61 146.79 268.00 147.00
C 266.17 143.85 269.53 141.72 272.00 140.00
C 272.00 140.00 271.78 139.38 272.00 139.00
C 276.83 130.56 269.03 123.62 262.00 122.00
C 260.78 122.79 258.42 122.82 257.00 123.00 Z"/>
</g>
<g fill="None" fill-opacity="0.0" stroke="#84654C" stroke-opacity="0.94" stroke-width="0.3"><path d="
M 215.00 142.00 
C 215.37 141.85 216.77 141.23 217.00 141.00
C 221.25 136.84 218.92 129.56 216.00 126.00
C 218.32 130.25 219.56 138.52 215.00 142.00 Z"/>
</g>
<g fill="None" fill-opacity="0.0" stroke="#9D8168" stroke-opacity="0.95" stroke-width="0.3"><path d="
M 250.00 138.00 
C 250.11 138.47 249.85 139.55 250.00 140.00
C 251.67 144.85 260.31 148.76 264.00 151.00
C 266.48 152.03 269.08 152.96 271.00 155.00
C 270.28 154.07 269.49 153.04 269.00 152.00
C 272.54 152.22 273.93 156.74 277.00 158.00
C 270.62 144.95 250.94 147.82 252.00 130.00
C 251.61 132.04 250.86 135.98 250.00 138.00 Z"/>
</g>
<g fill="None" fill-opacity="0.0" stroke="#734E37" stroke-opacity="0.95" stroke-width="0.3"><path d="
M 240.00 136.00 
C 241.77 137.13 242.50 137.14 244.00 139.00
C 254.70 147.43 265.36 159.20 264.00 174.00
C 266.27 164.23 261.31 154.81 255.00 147.00
C 258.09 147.98 260.72 150.19 264.00 151.00
C 260.31 148.76 251.67 144.85 250.00 140.00
C 248.16 137.80 243.82 130.11 240.00 136.00 Z"/>
</g>
<g fill="None" fill-opacity="0.0" stroke="#DFBA99" stroke-opacity="1.00" stroke-width="0.3"><path d="
M 217.00 141.00 
C 216.77 141.23 215.37 141.85 215.00 142.00
C 213.63 142.55 211.43 143.72 210.00 144.00
C 205.12 148.69 212.11 156.28 217.75 160.25 C 223.40 164.22 227.71 167.97 237.01 168.99 C 246.30 170.02 249.68 161.18 249.00 152.00
C 248.85 149.93 248.58 148.88 248.00 147.00
C 243.46 144.97 242.88 136.95 237.00 137.00
C 238.62 144.14 235.18 147.52 229.02 148.98 C 222.87 150.43 220.36 141.64 217.00 141.00 Z"/>
</g>
<g fill="None" fill-opacity="0.0" stroke="#7A5140" stroke-opacity="0.95" stroke-width="0.3"><path d="
M 267.00 147.00 
C 264.56 143.52 259.91 140.65 258.00 137.00
C 259.38 140.35 263.42 145.25 267.00 147.00 Z"/>
</g>
<g fill="None" fill-opacity="0.0" stroke="#D28762" stroke-opacity="1.00" stroke-width="0.3"><path d="
M 248.00 147.00 
C 248.58 148.88 248.85 149.93 249.00 152.00
C 251.31 160.58 251.96 168.84 240.99 170.99 C 230.02 173.15 203.01 160.14 206.00 145.00
C 199.15 147.07 191.16 148.19 184.00 149.00 C 176.84 149.81 168.67 153.64 162.00 154.00
C 173.59 157.02 171.65 166.80 161.00 169.00
C 165.40 169.00 168.84 170.36 172.00 171.00
C 181.00 171.00 198.73 169.48 205.00 177.00
C 207.66 178.56 213.71 182.51 213.00 188.00
C 210.47 185.41 209.90 180.63 206.00 179.00
C 209.02 183.88 212.64 189.49 214.00 195.00
C 214.08 195.25 214.80 195.68 215.00 196.00
C 219.92 199.84 230.11 196.55 236.01 196.01 C 241.91 195.46 251.59 195.91 256.00 192.00
C 259.51 187.04 262.56 180.17 264.00 174.00
C 265.36 159.20 254.70 147.43 244.00 139.00
C 245.94 141.40 247.12 144.14 248.00 147.00 Z"/>
</g>
<g fill="None" fill-opacity="0.0" stroke="#BE9B8B" stroke-opacity="0.91" stroke-width="0.3"><path d="
M 268.00 147.00 
C 269.38 147.72 270.77 148.99 272.00 150.00
C 270.81 147.92 268.68 146.42 268.00 144.00
C 269.57 143.19 271.20 141.64 272.00 140.00
C 269.53 141.72 266.17 143.85 268.00 147.00 Z"/>
</g>
<g fill="None" fill-opacity="0.0" stroke="#876049" stroke-opacity="1.00" stroke-width="0.3"><path d="
M 157.00 153.00 
C 157.11 152.79 158.00 153.00 158.00 153.00
C 157.68 149.47 157.81 145.54 158.00 142.00
C 157.49 145.12 156.65 149.14 157.00 153.00 Z"/>
</g>
<g fill="None" fill-opacity="0.0" stroke="#875E47" stroke-opacity="0.93" stroke-width="0.3"><path d="
M 159.00 153.00 
C 160.12 154.04 160.48 153.60 162.00 154.00
C 168.67 153.64 176.84 149.81 184.00 149.00 C 191.16 148.19 199.15 147.07 206.00 145.00
C 206.35 144.89 206.73 144.13 207.00 144.00
C 192.00 144.51 173.04 148.09 159.00 153.00 Z"/>
</g>
<g fill="None" fill-opacity="0.0" stroke="#D5A07C" stroke-opacity="0.93" stroke-width="0.3"><path d="
M 206.00 145.00 
C 203.01 160.14 230.02 173.15 240.99 170.99 C 251.96 168.84 251.31 160.58 249.00 152.00
C 249.68 161.18 246.30 170.02 237.01 168.99 C 227.71 167.97 223.40 164.22 217.75 160.25 C 212.11 156.28 205.12 148.69 210.00 144.00
C 209.07 144.18 207.94 143.97 207.00 144.00
C 206.73 144.13 206.35 144.89 206.00 145.00 Z"/>
</g>
<g fill="None" fill-opacity="0.0" stroke="#4D3828" stroke-opacity="0.98" stroke-width="0.3"><path d="
M 264.00 174.00 
C 262.56 180.17 259.51 187.04 256.00 192.00
C 256.28 191.75 257.57 192.17 258.00 192.00
C 260.27 191.11 262.91 190.21 265.00 189.00
C 269.96 184.92 273.49 180.48 274.00 174.00
C 274.50 167.74 274.30 161.24 271.00 156.00
C 270.77 155.64 271.00 155.00 271.00 155.00
C 269.08 152.96 266.48 152.03 264.00 151.00
C 260.72 150.19 258.09 147.98 255.00 147.00
C 261.31 154.81 266.27 164.23 264.00 174.00
M 265.00 182.00 
C 265.55 184.37 263.47 187.14 261.00 187.00
C 260.95 184.78 263.29 183.01 265.00 182.00 Z"/>
</g>
<g fill="None" fill-opacity="0.0" stroke="#EACDB5" stroke-opacity="0.91" stroke-width="0.3"><path d="
M 75.00 166.00 
C 73.41 163.52 81.38 159.85 84.23 158.23 C 87.08 156.61 93.15 153.51 98.00 154.00 C 102.85 154.49 110.54 153.99 116.00 154.00 C 121.46 154.01 127.51 154.22 133.00 155.00 C 138.49 155.77 145.38 154.42 151.00 155.00
C 151.00 154.00 151.00 153.00 151.00 152.00
C 142.35 152.13 128.57 154.83 120.07 152.93 C 111.58 151.03 97.25 152.91 90.22 153.22 C 83.20 153.54 71.81 164.09 75.00 166.00 Z"/>
</g>
<g fill="None" fill-opacity="0.0" stroke="#DBA983" stroke-opacity="0.99" stroke-width="0.3"><path d="
M 75.00 166.00 
C 76.73 167.04 78.04 166.78 80.00 167.00
C 82.81 166.40 85.08 160.15 89.00 161.00
C 89.95 167.14 99.22 159.61 105.00 162.00 C 110.78 164.39 119.45 162.84 125.00 165.00
C 128.95 165.95 133.16 166.66 137.00 168.00
C 138.19 168.42 139.78 167.68 141.00 168.00
C 141.53 169.28 140.03 169.86 140.00 171.00
C 140.49 170.93 141.00 171.00 141.00 171.00
C 142.89 166.84 156.84 169.00 161.00 169.00
C 171.65 166.80 173.59 157.02 162.00 154.00
C 160.48 153.60 160.12 154.04 159.00 153.00
C 159.00 153.00 158.50 153.00 158.00 153.00
C 158.00 153.00 157.11 152.79 157.00 153.00
C 155.54 155.74 155.56 153.99 154.00 153.00
C 153.39 152.61 152.57 152.38 152.00 152.00
C 152.00 152.00 151.00 152.02 151.00 152.00
C 151.00 153.00 151.00 154.00 151.00 155.00
C 145.38 154.42 138.49 155.77 133.00 155.00 C 127.51 154.22 121.46 154.01 116.00 154.00 C 110.54 153.99 102.85 154.49 98.00 154.00 C 93.15 153.51 87.08 156.61 84.23 158.23 C 81.38 159.85 73.41 163.52 75.00 166.00 Z"/>
</g>
<g fill="None" fill-opacity="0.0" stroke="#E5D2BE" stroke-opacity="0.96" stroke-width="0.3"><path d="
M 271.00 155.00 
C 271.00 155.00 270.77 155.64 271.00 156.00
C 272.73 157.08 274.65 160.30 275.00 162.00
C 275.53 160.04 275.21 160.59 277.00 160.00
C 276.78 159.62 277.00 159.00 277.00 159.00
C 277.00 159.00 277.20 158.40 277.00 158.00
C 273.93 156.74 272.54 152.22 269.00 152.00
C 269.49 153.04 270.28 154.07 271.00 155.00 Z"/>
</g>
<g fill="None" fill-opacity="0.0" stroke="#988879" stroke-opacity="0.95" stroke-width="0.3"><path d="
M 274.00 174.00 
C 274.60 170.87 274.06 165.50 275.00 162.00
C 274.65 160.30 272.73 157.08 271.00 156.00
C 274.30 161.24 274.50 167.74 274.00 174.00 Z"/>
</g>
<g fill="None" fill-opacity="0.0" stroke="#A8A29B" stroke-opacity="0.95" stroke-width="0.3"><path d="
M 277.00 160.00 
C 280.20 164.09 275.34 169.05 278.00 173.00
C 282.03 170.78 280.79 165.20 280.00 162.00
C 279.61 163.87 280.87 166.86 279.00 168.00
C 278.92 164.86 279.68 161.05 277.00 159.00
C 277.00 159.00 276.78 159.62 277.00 160.00 Z"/>
</g>
<g fill="None" fill-opacity="0.0" stroke="#E8CAB1" stroke-opacity="0.95" stroke-width="0.3"><path d="
M 80.00 167.00 
C 94.45 168.65 109.75 163.20 125.00 165.00
C 119.45 162.84 110.78 164.39 105.00 162.00 C 99.22 159.61 89.95 167.14 89.00 161.00
C 85.08 160.15 82.81 166.40 80.00 167.00 Z"/>
</g>
<g fill="None" fill-opacity="0.0" stroke="#E7D0BD" stroke-opacity="0.93" stroke-width="0.3"><path d="
M 135.00 173.00 
C 136.55 172.02 138.19 171.24 140.00 171.00
C 140.03 169.86 141.53 169.28 141.00 168.00
C 139.78 167.68 138.19 168.42 137.00 168.00
C 136.94 169.44 138.92 168.74 139.00 170.00
C 136.80 169.45 136.17 171.90 135.00 173.00 Z"/>
</g>
<g fill="None" fill-opacity="0.0" stroke="#6A4633" stroke-opacity="0.97" stroke-width="0.3"><path d="
M 141.00 171.00 
C 151.33 171.00 161.67 171.00 172.00 171.00
C 168.84 170.36 165.40 169.00 161.00 169.00
C 156.84 169.00 142.89 166.84 141.00 171.00 Z"/>
</g>
<g fill="None" fill-opacity="0.0" stroke="#49372B" stroke-opacity="1.00" stroke-width="0.3"><path d="
M 135.00 173.00 
C 126.69 177.87 124.04 188.71 128.00 197.00
C 130.12 195.62 128.50 192.20 129.00 190.00
C 129.28 188.78 130.41 186.03 131.00 185.00
C 132.78 181.86 135.97 179.29 139.00 178.00
C 141.73 176.84 144.93 176.10 148.00 176.00
C 146.84 177.49 144.66 178.02 143.00 179.00
C 141.03 180.54 138.30 184.13 137.00 186.00
C 136.55 186.82 135.18 188.43 135.00 189.00
C 133.27 200.36 139.34 209.31 150.00 212.00
C 151.33 212.01 152.67 211.99 154.00 212.00
C 152.94 210.45 152.09 207.11 154.00 206.00
C 155.25 202.29 158.42 200.21 162.00 199.00
C 163.90 198.36 166.46 197.43 169.00 198.00
C 168.51 199.83 166.65 200.18 165.00 200.00
C 163.40 201.50 162.35 203.93 162.00 206.00
C 165.58 203.73 171.16 205.13 173.00 209.00
C 173.30 209.22 173.73 209.87 174.00 210.00
C 176.72 210.91 179.32 211.91 182.00 213.00
C 188.02 214.27 193.07 212.77 199.00 213.00
C 199.50 213.02 200.51 213.06 201.00 213.00
C 203.55 211.22 205.79 210.02 209.00 209.00
C 210.06 208.66 210.96 208.57 212.00 208.00
C 216.03 204.95 215.01 199.09 214.00 195.00
C 212.64 189.49 209.02 183.88 206.00 179.00
C 205.67 178.47 205.36 177.43 205.00 177.00
C 198.73 169.48 181.00 171.00 172.00 171.00
C 161.67 171.00 151.33 171.00 141.00 171.00
C 141.00 171.00 140.49 170.93 140.00 171.00
C 138.19 171.24 136.55 172.02 135.00 173.00 Z"/>
</g>
<g fill="None" fill-opacity="0.0" stroke="#A79B91" stroke-opacity="0.94" stroke-width="0.3"><path d="
M 139.00 178.00 
C 137.12 179.05 132.28 183.09 131.00 185.00
C 130.41 186.03 129.28 188.78 129.00 190.00
C 132.83 187.12 134.15 180.29 140.00 180.00
C 137.91 182.75 135.53 185.51 135.00 189.00
C 135.18 188.43 136.55 186.82 137.00 186.00
C 138.57 183.11 140.21 180.86 143.00 179.00
C 144.66 178.02 146.84 177.49 148.00 176.00
C 144.93 176.10 141.73 176.84 139.00 178.00 Z"/>
</g>
<g fill="None" fill-opacity="0.0" stroke="#AE6E52" stroke-opacity="0.89" stroke-width="0.3"><path d="
M 205.00 177.00 
C 205.36 177.43 205.67 178.47 206.00 179.00
C 209.90 180.63 210.47 185.41 213.00 188.00
C 213.71 182.51 207.66 178.56 205.00 177.00 Z"/>
</g>
<g fill="None" fill-opacity="0.0" stroke="#6C5E51" stroke-opacity="0.93" stroke-width="0.3"><path d="
M 131.00 185.00 
C 132.28 183.09 137.12 179.05 139.00 178.00
C 135.97 179.29 132.78 181.86 131.00 185.00 Z"/>
</g>
<g fill="None" fill-opacity="0.0" stroke="#7B6F64" stroke-opacity="0.91" stroke-width="0.3"><path d="
M 137.00 186.00 
C 138.30 184.13 141.03 180.54 143.00 179.00
C 140.21 180.86 138.57 183.11 137.00 186.00 Z"/>
</g>
<g fill="None" fill-opacity="0.0" stroke="#73665A" stroke-opacity="0.94" stroke-width="0.3"><path d="
M 265.00 182.00 
C 263.29 183.01 260.95 184.78 261.00 187.00
C 263.47 187.14 265.55 184.37 265.00 182.00 Z"/>
</g>
<g fill="None" fill-opacity="0.0" stroke="#A79D92" stroke-opacity="0.93" stroke-width="0.3"><path d="
M 258.00 192.00 
C 258.23 192.34 258.00 193.00 258.00 193.00
C 261.13 192.54 262.79 190.81 265.00 189.00
C 262.91 190.21 260.27 191.11 258.00 192.00 Z"/>
</g>
<g fill="None" fill-opacity="0.0" stroke="#D4A480" stroke-opacity="0.98" stroke-width="0.3"><path d="
M 215.00 196.00 
C 216.19 197.93 216.34 200.72 216.00 203.00
C 218.60 197.85 228.23 198.37 233.67 197.67 C 239.11 196.97 250.71 195.21 256.00 198.00
C 255.71 195.92 255.92 193.88 258.00 193.00
C 258.00 193.00 258.23 192.34 258.00 192.00
C 257.57 192.17 256.28 191.75 256.00 192.00
C 251.59 195.91 241.91 195.46 236.01 196.01 C 230.11 196.55 219.92 199.84 215.00 196.00 Z"/>
</g>
<g fill="None" fill-opacity="0.0" stroke="#937966" stroke-opacity="0.96" stroke-width="0.3"><path d="
M 212.00 208.00 
C 213.08 207.41 213.96 206.60 215.00 206.00
C 215.75 205.00 215.82 204.20 216.00 203.00
C 216.34 200.72 216.19 197.93 215.00 196.00
C 214.80 195.68 214.08 195.25 214.00 195.00
C 215.01 199.09 216.03 204.95 212.00 208.00 Z"/>
</g>
<g fill="None" fill-opacity="0.0" stroke="#D4BC9B" stroke-opacity="0.97" stroke-width="0.3"><path d="
M 216.00 203.00 
C 215.82 204.20 215.75 205.00 215.00 206.00
C 225.38 200.01 237.83 200.88 250.00 201.00
C 252.45 212.29 254.73 224.29 258.00 235.00
C 256.21 223.73 254.10 213.15 252.00 202.00
C 253.54 202.37 254.40 200.57 256.00 201.00
C 255.83 200.57 256.00 199.50 256.00 199.00
C 256.00 199.00 256.07 198.49 256.00 198.00
C 250.71 195.21 239.11 196.97 233.67 197.67 C 228.23 198.37 218.60 197.85 216.00 203.00 Z"/>
</g>
<g fill="None" fill-opacity="0.0" stroke="#A3988E" stroke-opacity="0.95" stroke-width="0.3"><path d="
M 162.00 199.00 
C 166.01 199.98 155.93 205.22 161.00 209.00
C 165.32 206.99 169.87 208.62 174.00 210.00
C 173.73 209.87 173.30 209.22 173.00 209.00
C 169.39 206.37 164.87 204.78 161.00 208.00
C 160.21 204.64 161.95 201.39 165.00 200.00
C 166.65 200.18 168.51 199.83 169.00 198.00
C 166.46 197.43 163.90 198.36 162.00 199.00 Z"/>
</g>
<g fill="None" fill-opacity="0.0" stroke="#DDDFD2" stroke-opacity="0.95" stroke-width="0.3"><path d="
M 256.00 201.00 
C 262.46 217.02 275.16 227.21 289.23 236.77 C 303.30 246.33 322.86 249.26 338.00 257.00
C 344.74 260.45 349.65 264.65 355.00 270.00
C 359.64 274.64 365.03 280.30 362.00 287.00
C 361.19 288.79 359.48 289.96 358.00 291.00
C 356.62 291.96 354.49 293.52 353.00 294.00
C 375.65 288.90 356.20 261.86 341.08 255.92 C 325.95 249.99 305.86 243.89 290.70 235.30 C 275.53 226.72 266.42 212.00 256.00 199.00
C 256.00 199.50 255.83 200.57 256.00 201.00 Z"/>
</g>
<g fill="None" fill-opacity="0.0" stroke="#655A51" stroke-opacity="0.91" stroke-width="0.3"><path d="
M 173.00 209.00 
C 171.16 205.13 165.58 203.73 162.00 206.00
C 162.35 203.93 163.40 201.50 165.00 200.00
C 161.95 201.39 160.21 204.64 161.00 208.00
C 164.87 204.78 169.39 206.37 173.00 209.00 Z"/>
</g>
<g fill="None" fill-opacity="0.0" stroke="#F0C9AD" stroke-opacity="0.99" stroke-width="0.3"><path d="
M 215.00 206.00 
C 213.96 206.60 213.08 207.41 212.00 208.00
C 210.96 208.57 210.06 208.66 209.00 209.00
C 208.49 209.41 208.28 210.46 208.00 211.00
C 204.12 218.55 196.65 224.17 190.25 230.25 C 183.84 236.32 175.35 239.32 167.01 243.01 C 158.66 246.69 147.79 248.11 138.22 250.22 C 128.65 252.34 114.23 251.65 104.00 252.00 C 93.77 252.35 78.31 250.04 69.00 251.00 C 59.69 251.96 43.25 242.91 39.00 253.00
C 43.69 246.36 57.69 255.27 62.25 260.75 C 66.81 266.23 72.10 275.22 75.77 282.23 C 79.44 289.24 83.29 298.89 89.00 305.00
C 85.82 304.59 83.28 306.69 80.00 306.00
C 78.71 302.67 74.44 302.98 72.00 299.00
C 73.18 301.03 74.21 303.76 75.00 306.00
C 75.80 307.26 77.91 308.07 78.00 310.00
C 89.30 305.37 106.74 303.00 116.00 311.00
C 137.82 315.29 156.48 336.68 180.07 330.07 C 203.67 323.47 219.96 318.54 237.75 300.75 C 255.54 282.97 261.98 260.00 258.00 235.00
C 254.73 224.29 252.45 212.29 250.00 201.00
C 237.83 200.88 225.38 200.01 215.00 206.00
M 116.00 299.00 
C 129.16 297.36 143.24 297.53 154.69 306.31 C 166.15 315.08 182.23 311.42 188.92 299.92 C 195.61 288.42 205.39 283.80 211.75 272.75 C 218.12 261.71 225.61 251.66 228.00 239.00
C 229.95 249.04 225.43 262.51 220.69 271.69 C 215.96 280.88 211.26 289.25 203.25 296.25 C 195.24 303.25 190.68 312.06 180.77 316.77 C 170.86 321.48 156.75 315.84 147.77 310.23 C 138.80 304.62 125.92 300.75 116.00 299.00
M 125.00 254.00 
C 115.58 256.31 104.18 254.35 94.00 255.00
C 103.42 252.69 114.82 254.65 125.00 254.00 Z"/>
</g>
<g fill="None" fill-opacity="0.0" stroke="#9DAA90" stroke-opacity="1.00" stroke-width="0.3"><path d="
M 258.00 235.00 
C 261.98 260.00 255.54 282.97 237.75 300.75 C 219.96 318.54 203.67 323.47 180.07 330.07 C 156.48 336.68 137.82 315.29 116.00 311.00
C 113.35 310.48 110.79 310.39 108.00 310.00
C 111.08 311.36 113.90 315.61 117.70 316.31 C 121.49 317.00 118.35 320.88 118.00 320.00
C 128.93 324.77 135.27 335.49 147.69 339.31 C 160.12 343.12 173.16 348.98 187.00 349.00 C 200.84 349.02 216.41 347.00 228.07 341.07 C 239.74 335.15 247.29 328.11 256.75 319.75 C 266.21 311.39 272.94 304.75 282.25 296.25 C 291.56 287.75 299.71 282.46 310.75 275.75 C 321.79 269.03 339.22 267.60 352.00 267.00
C 347.47 263.42 342.08 260.74 338.00 257.00
C 322.86 249.26 303.30 246.33 289.23 236.77 C 275.16 227.21 262.46 217.02 256.00 201.00
C 254.40 200.57 253.54 202.37 252.00 202.00
C 254.10 213.15 256.21 223.73 258.00 235.00 Z"/>
</g>
<g fill="None" fill-opacity="0.0" stroke="#999189" stroke-opacity="0.94" stroke-width="0.3"><path d="
M 150.00 212.00 
C 151.07 214.06 154.12 212.53 156.00 213.00
C 155.80 210.38 153.72 208.76 154.00 206.00
C 152.09 207.11 152.94 210.45 154.00 212.00
C 152.67 211.99 151.33 212.01 150.00 212.00 Z"/>
</g>
<g fill="None" fill-opacity="0.0" stroke="#927A68" stroke-opacity="0.93" stroke-width="0.3"><path d="
M 201.00 213.00 
C 202.79 212.77 206.58 211.98 208.00 211.00
C 208.28 210.46 208.49 209.41 209.00 209.00
C 205.79 210.02 203.55 211.22 201.00 213.00 Z"/>
</g>
<g fill="None" fill-opacity="0.0" stroke="#A99F97" stroke-opacity="0.93" stroke-width="0.3"><path d="
M 199.00 213.00 
C 193.07 212.77 188.02 214.27 182.00 213.00
C 188.70 215.73 192.39 216.37 199.00 213.00 Z"/>
</g>
<g fill="None" fill-opacity="0.0" stroke="#000000" stroke-opacity="0.00" stroke-width="0.3"><path d="
M 0.00 432.00 
L 195.00 432.00
C 195.00 431.50 195.00 431.00 195.00 431.00
C 187.27 431.00 180.35 429.34 173.00 428.00
C 169.37 427.34 165.59 426.96 162.00 426.00
C 76.54 403.17 7.28 325.82 0.00 237.00
L 0.00 432.00 Z"/>
</g>
<g fill="None" fill-opacity="0.0" stroke="#000000" stroke-opacity="0.00" stroke-width="0.3"><path d="
M 272.00 425.00 
C 263.04 427.57 254.40 428.86 245.00 430.00
C 242.82 430.26 239.84 431.06 237.00 431.00
C 236.99 431.00 237.00 432.00 237.00 432.00
L 432.00 432.00
L 432.00 237.00
C 425.08 325.99 356.33 400.79 272.00 425.00 Z"/>
</g>
<g fill="None" fill-opacity="0.0" stroke="#F8DCC6" stroke-opacity="0.97" stroke-width="0.3"><path d="
M 116.00 299.00 
C 125.92 300.75 138.80 304.62 147.77 310.23 C 156.75 315.84 170.86 321.48 180.77 316.77 C 190.68 312.06 195.24 303.25 203.25 296.25 C 211.26 289.25 215.96 280.88 220.69 271.69 C 225.43 262.51 229.95 249.04 228.00 239.00
C 225.61 251.66 218.12 261.71 211.75 272.75 C 205.39 283.80 195.61 288.42 188.92 299.92 C 182.23 311.42 166.15 315.08 154.69 306.31 C 143.24 297.53 129.16 297.36 116.00 299.00 Z"/>
</g>
<g fill="None" fill-opacity="0.0" stroke="#E2B191" stroke-opacity="0.99" stroke-width="0.3"><path d="
M 39.00 253.00 
C 30.45 273.29 60.98 287.19 72.00 299.00
C 74.44 302.98 78.71 302.67 80.00 306.00
C 83.28 306.69 85.82 304.59 89.00 305.00
C 83.29 298.89 79.44 289.24 75.77 282.23 C 72.10 275.22 66.81 266.23 62.25 260.75 C 57.69 255.27 43.69 246.36 39.00 253.00 Z"/>
</g>
<g fill="None" fill-opacity="0.0" stroke="#F6D6BF" stroke-opacity="0.88" stroke-width="0.3"><path d="
M 125.00 254.00 
C 114.82 254.65 103.42 252.69 94.00 255.00
C 104.18 254.35 115.58 256.31 125.00 254.00 Z"/>
</g>
<g fill="None" fill-opacity="0.0" stroke="#C2C4AD" stroke-opacity="0.97" stroke-width="0.3"><path d="
M 118.00 320.00 
C 110.53 316.74 99.68 319.77 92.00 320.00
C 100.68 323.00 110.76 324.45 119.00 330.00
C 120.68 330.82 122.36 331.28 124.00 332.00
C 137.52 337.90 149.34 343.25 163.08 348.92 C 176.81 354.60 198.26 356.78 213.01 354.01 C 227.75 351.24 239.10 342.57 250.70 334.70 C 262.30 326.82 270.14 316.13 280.75 307.75 C 291.36 299.37 300.65 288.13 312.23 282.23 C 323.81 276.33 341.71 264.59 355.00 270.00
C 349.65 264.65 344.74 260.45 338.00 257.00
C 342.08 260.74 347.47 263.42 352.00 267.00
C 339.22 267.60 321.79 269.03 310.75 275.75 C 299.71 282.46 291.56 287.75 282.25 296.25 C 272.94 304.75 266.21 311.39 256.75 319.75 C 247.29 328.11 239.74 335.15 228.07 341.07 C 216.41 347.00 200.84 349.02 187.00 349.00 C 173.16 348.98 160.12 343.12 147.69 339.31 C 135.27 335.49 128.93 324.77 118.00 320.00 Z"/>
</g>
<g fill="None" fill-opacity="0.0" stroke="#9DAA90" stroke-opacity="1.00" stroke-width="0.3"><path d="
M 124.00 332.00 
C 144.27 344.04 161.84 364.08 186.00 368.00
C 199.35 368.91 218.43 368.98 230.02 365.02 C 241.62 361.07 249.67 354.35 257.75 345.75 C 265.83 337.15 272.54 329.32 279.25 320.25 C 285.95 311.17 292.80 302.85 300.75 294.75 C 308.70 286.65 319.11 279.50 329.08 276.08 C 339.04 272.66 366.67 269.34 362.00 287.00
C 365.03 280.30 359.64 274.64 355.00 270.00
C 341.71 264.59 323.81 276.33 312.23 282.23 C 300.65 288.13 291.36 299.37 280.75 307.75 C 270.14 316.13 262.30 326.82 250.70 334.70 C 239.10 342.57 227.75 351.24 213.01 354.01 C 198.26 356.78 176.81 354.60 163.08 348.92 C 149.34 343.25 137.52 337.90 124.00 332.00 Z"/>
</g>
<g fill="None" fill-opacity="0.0" stroke="#78876F" stroke-opacity="0.99" stroke-width="0.3"><path d="
M 186.00 368.00 
C 160.68 366.28 139.16 342.87 119.00 330.00
C 110.76 324.45 100.68 323.00 92.00 320.00
C 99.68 319.77 110.53 316.74 118.00 320.00
C 118.35 320.88 121.49 317.00 117.70 316.31 C 113.90 315.61 111.08 311.36 108.00 310.00
C 97.22 308.49 86.49 308.23 77.00 311.00
C 66.31 314.12 69.64 327.17 73.75 335.25 C 77.85 343.34 87.31 346.24 96.00 347.00
C 96.96 346.83 98.47 346.09 100.00 346.00
C 120.49 344.81 135.18 362.04 150.00 372.00
C 158.57 375.92 169.12 379.56 178.00 382.00
C 184.10 382.42 191.07 382.63 197.00 384.00
C 197.47 384.11 198.50 384.00 199.00 384.00
C 209.86 384.00 226.39 386.88 236.00 382.00
C 239.24 378.54 243.70 378.03 248.00 377.00
C 256.58 374.94 262.94 369.69 271.00 367.00
C 274.39 364.40 276.50 359.68 278.00 356.00
C 280.75 349.23 283.34 345.28 288.75 339.75 C 294.16 334.23 301.51 334.49 308.00 332.00
C 325.14 325.43 312.28 296.56 333.00 298.00
C 331.87 290.58 324.40 290.64 320.00 294.00
C 319.22 291.35 321.94 289.27 320.00 287.00
C 323.12 286.91 326.85 286.87 329.00 289.00
C 330.34 289.36 332.71 289.83 334.00 290.00
C 339.88 290.79 351.08 294.13 358.00 291.00
C 359.48 289.96 361.19 288.79 362.00 287.00
C 366.67 269.34 339.04 272.66 329.08 276.08 C 319.11 279.50 308.70 286.65 300.75 294.75 C 292.80 302.85 285.95 311.17 279.25 320.25 C 272.54 329.32 265.83 337.15 257.75 345.75 C 249.67 354.35 241.62 361.07 230.02 365.02 C 218.43 368.98 199.35 368.91 186.00 368.00 Z"/>
</g>
<g fill="None" fill-opacity="0.0" stroke="#A3957F" stroke-opacity="0.99" stroke-width="0.3"><path d="
M 308.00 332.00 
C 307.91 333.16 309.73 334.82 310.00 336.00
C 311.55 342.74 309.25 352.98 305.00 358.00
C 316.36 353.38 339.07 346.31 344.01 333.01 C 348.95 319.70 337.43 296.31 329.00 289.00
C 326.85 286.87 323.12 286.91 320.00 287.00
C 321.94 289.27 319.22 291.35 320.00 294.00
C 324.40 290.64 331.87 290.58 333.00 298.00
C 312.28 296.56 325.14 325.43 308.00 332.00 Z"/>
</g>
<g fill="None" fill-opacity="0.0" stroke="#A0AC93" stroke-opacity="0.96" stroke-width="0.3"><path d="
M 334.00 290.00 
C 341.35 293.10 344.40 295.94 353.00 294.00
C 354.49 293.52 356.62 291.96 358.00 291.00
C 351.08 294.13 339.88 290.79 334.00 290.00 Z"/>
</g>
<g fill="None" fill-opacity="0.0" stroke="#C9B89E" stroke-opacity="0.96" stroke-width="0.3"><path d="
M 77.00 311.00 
C 86.49 308.23 97.22 308.49 108.00 310.00
C 110.79 310.39 113.35 310.48 116.00 311.00
C 106.74 303.00 89.30 305.37 78.00 310.00
C 77.91 308.07 75.80 307.26 75.00 306.00
C 75.77 308.19 75.00 309.89 77.00 311.00 Z"/>
</g>
<g fill="None" fill-opacity="0.0" stroke="#85947B" stroke-opacity="0.89" stroke-width="0.3"><path d="
M 186.00 368.00 
C 161.84 364.08 144.27 344.04 124.00 332.00
C 122.36 331.28 120.68 330.82 119.00 330.00
C 139.16 342.87 160.68 366.28 186.00 368.00 Z"/>
</g>
<g fill="None" fill-opacity="0.0" stroke="#B1AE9A" stroke-opacity="0.97" stroke-width="0.3"><path d="
M 278.00 356.00 
C 280.56 352.11 287.43 344.86 290.75 341.75 C 294.07 338.64 306.55 331.12 310.00 336.00
C 309.73 334.82 307.91 333.16 308.00 332.00
C 301.51 334.49 294.16 334.23 288.75 339.75 C 283.34 345.28 280.75 349.23 278.00 356.00 Z"/>
</g>
<g fill="None" fill-opacity="0.0" stroke="#D6C5B2" stroke-opacity="0.99" stroke-width="0.3"><path d="
M 278.00 356.00 
C 276.50 359.68 274.39 364.40 271.00 367.00
C 282.27 363.24 294.22 362.39 305.00 358.00
C 309.25 352.98 311.55 342.74 310.00 336.00
C 306.55 331.12 294.07 338.64 290.75 341.75 C 287.43 344.86 280.56 352.11 278.00 356.00 Z"/>
</g>
<g fill="None" fill-opacity="0.0" stroke="#DCDFD3" stroke-opacity="0.92" stroke-width="0.3"><path d="
M 96.00 347.00 
C 127.24 349.75 146.33 379.84 178.00 382.00
C 169.12 379.56 158.57 375.92 150.00 372.00
C 132.51 364.01 120.09 346.99 100.00 346.00
C 98.47 346.09 96.96 346.83 96.00 347.00 Z"/>
</g>
<g fill="None" fill-opacity="0.0" stroke="#A4AC9B" stroke-opacity="0.89" stroke-width="0.3"><path d="
M 150.00 372.00 
C 135.18 362.04 120.49 344.81 100.00 346.00
C 120.09 346.99 132.51 364.01 150.00 372.00 Z"/>
</g>
<g fill="None" fill-opacity="0.0" stroke="#BDC1B4" stroke-opacity="0.91" stroke-width="0.3"><path d="
M 236.00 382.00 
C 235.75 382.27 236.00 383.00 236.00 383.00
C 239.87 380.82 244.11 378.66 248.00 377.00
C 243.70 378.03 239.24 378.54 236.00 382.00 Z"/>
</g>
<g fill="None" fill-opacity="0.0" stroke="#9C9179" stroke-opacity="0.99" stroke-width="0.3"><path d="
M 199.00 384.00 
C 202.68 386.95 209.55 392.33 215.00 390.00 C 220.45 387.67 230.98 392.24 235.00 388.00
C 235.53 386.16 236.22 385.13 236.00 383.00
C 236.00 383.00 235.75 382.27 236.00 382.00
C 226.39 386.88 209.86 384.00 199.00 384.00 Z"/>
</g>
<g fill="None" fill-opacity="0.0" stroke="#B9AA95" stroke-opacity="0.99" stroke-width="0.3"><path d="
M 208.00 399.00 
C 210.95 398.84 216.05 397.60 218.69 399.31 C 221.34 401.02 225.44 403.67 228.00 403.00
C 229.55 400.15 231.75 396.84 233.00 394.00
C 233.51 391.99 234.43 389.99 235.00 388.00
C 230.98 392.24 220.45 387.67 215.00 390.00 C 209.55 392.33 202.68 386.95 199.00 384.00
C 198.50 384.00 197.47 384.11 197.00 384.00
C 187.40 390.68 201.92 399.34 208.00 399.00 Z"/>
</g>
<g fill="None" fill-opacity="0.0" stroke="#DDC1A7" stroke-opacity="0.94" stroke-width="0.3"><path d="
M 228.00 403.00 
C 222.03 413.94 231.13 424.14 242.00 426.00
C 234.27 433.57 222.91 425.49 214.00 425.00
C 213.04 420.36 217.03 414.95 214.00 411.00
C 214.24 414.47 213.04 416.03 212.00 419.00
C 211.32 420.93 211.58 423.30 210.00 425.00
C 211.77 424.79 213.37 426.54 214.00 428.00
C 221.91 428.43 229.01 430.84 237.00 431.00
C 239.84 431.06 242.82 430.26 245.00 430.00
C 243.31 429.02 247.36 426.98 246.00 425.00
C 241.10 425.05 236.03 422.69 233.00 419.00
C 224.15 412.55 230.69 403.19 233.00 394.00
C 231.75 396.84 229.55 400.15 228.00 403.00 Z"/>
</g>
<g fill="None" fill-opacity="0.0" stroke="#D8A881" stroke-opacity="0.98" stroke-width="0.3"><path d="
M 208.00 399.00 
C 210.97 400.54 213.29 408.15 214.00 411.00
C 217.03 414.95 213.04 420.36 214.00 425.00
C 222.91 425.49 234.27 433.57 242.00 426.00
C 231.13 424.14 222.03 413.94 228.00 403.00
C 225.44 403.67 221.34 401.02 218.69 399.31 C 216.05 397.60 210.95 398.84 208.00 399.00 Z"/>
</g>
<g fill="None" fill-opacity="0.0" stroke="#D0C9B9" stroke-opacity="0.96" stroke-width="0.3"><path d="
M 162.00 426.00 
C 165.59 426.96 169.37 427.34 173.00 428.00
C 185.51 427.78 200.45 427.26 214.00 428.00
C 213.37 426.54 211.77 424.79 210.00 425.00
C 211.58 423.30 211.32 420.93 212.00 419.00
C 205.08 422.74 190.36 416.52 183.00 419.00 C 175.65 421.49 164.84 418.15 162.00 426.00 Z"/>
</g>
<g fill="None" fill-opacity="0.0" stroke="#D6CEC0" stroke-opacity="0.93" stroke-width="0.3"><path d="
M 245.00 430.00 
C 254.40 428.86 263.04 427.57 272.00 425.00
C 263.57 414.28 245.44 421.76 233.00 419.00
C 236.03 422.69 241.10 425.05 246.00 425.00
C 247.36 426.98 243.31 429.02 245.00 430.00 Z"/>
</g>
<g fill="None" fill-opacity="0.0" stroke="#FCF7F3" stroke-opacity="0.89" stroke-width="0.3"><path d="
M 173.00 428.00 
C 180.35 429.34 187.27 431.00 195.00 431.00
C 197.52 431.00 201.30 430.22 203.00 432.00
L 237.00 432.00
C 237.00 432.00 236.99 431.00 237.00 431.00
C 229.01 430.84 221.91 428.43 214.00 428.00
C 200.45 427.26 185.51 427.78 173.00 428.00 Z"/>
</g>
<g fill="None" fill-opacity="0.0" stroke="#FDF8F6" stroke-opacity="0.32" stroke-width="0.3"><path d="
M 195.00 432.00 
L 203.00 432.00
C 201.30 430.22 197.52 431.00 195.00 431.00
C 195.00 431.00 195.00 431.50 195.00 432.00 Z"/>
</g>
<g fill="#000000" fill-opacity="0.00" stroke="None">
<path d="
M 0.00 195.00 
C 8.03 95.59 95.66 8.02 195.00 0.00
L 0.00 0.00
L 0.00 195.00 Z"/>
</g>
<g fill="#FCF7F3" fill-opacity="0.99" stroke="None">
<path d="
M 0.00 195.00 
L 0.00 237.00
C 7.28 325.82 76.54 403.17 162.00 426.00
C 164.84 418.15 175.65 421.49 183.00 419.00 C 190.36 416.52 205.08 422.74 212.00 419.00
C 213.04 416.03 214.24 414.47 214.00 411.00
C 213.29 408.15 210.97 400.54 208.00 399.00
C 201.92 399.34 187.40 390.68 197.00 384.00
C 191.07 382.63 184.10 382.42 178.00 382.00
C 146.33 379.84 127.24 349.75 96.00 347.00
C 87.31 346.24 77.85 343.34 73.75 335.25 C 69.64 327.17 66.31 314.12 77.00 311.00
C 75.00 309.89 75.77 308.19 75.00 306.00
C 74.21 303.76 73.18 301.03 72.00 299.00
C 60.98 287.19 30.45 273.29 39.00 253.00
C 43.25 242.91 59.69 251.96 69.00 251.00 C 78.31 250.04 93.77 252.35 104.00 252.00 C 114.23 251.65 128.65 252.34 138.22 250.22 C 147.79 248.11 158.66 246.69 167.01 243.01 C 175.35 239.32 183.84 236.32 190.25 230.25 C 196.65 224.17 204.12 218.55 208.00 211.00
C 206.58 211.98 202.79 212.77 201.00 213.00
C 200.51 213.06 199.50 213.02 199.00 213.00
C 192.39 216.37 188.70 215.73 182.00 213.00
C 179.32 211.91 176.72 210.91 174.00 210.00
C 169.87 208.62 165.32 206.99 161.00 209.00
C 155.93 205.22 166.01 199.98 162.00 199.00
C 158.42 200.21 155.25 202.29 154.00 206.00
C 153.72 208.76 155.80 210.38 156.00 213.00
C 154.12 212.53 151.07 214.06 150.00 212.00
C 139.34 209.31 133.27 200.36 135.00 189.00
C 135.53 185.51 137.91 182.75 140.00 180.00
C 134.15 180.29 132.83 187.12 129.00 190.00
C 128.50 192.20 130.12 195.62 128.00 197.00
C 124.04 188.71 126.69 177.87 135.00 173.00
C 136.17 171.90 136.80 169.45 139.00 170.00
C 138.92 168.74 136.94 169.44 137.00 168.00
C 133.16 166.66 128.95 165.95 125.00 165.00
C 109.75 163.20 94.45 168.65 80.00 167.00
C 78.04 166.78 76.73 167.04 75.00 166.00
C 71.81 164.09 83.20 153.54 90.22 153.22 C 97.25 152.91 111.58 151.03 120.07 152.93 C 128.57 154.83 142.35 152.13 151.00 152.00
C 145.52 141.59 150.91 131.97 157.25 123.25 C 163.58 114.52 176.65 116.07 186.00 114.00
C 187.48 112.83 190.78 111.89 192.00 110.00
C 193.82 106.67 193.85 102.81 194.00 99.00
C 194.37 89.30 194.30 80.54 204.00 76.00
C 218.31 69.31 231.74 69.55 242.25 82.75 C 252.75 95.95 258.42 105.09 257.00 123.00
C 258.42 122.82 260.78 122.79 262.00 122.00
C 262.27 121.83 262.68 121.20 263.00 121.00
C 270.15 111.81 279.50 104.35 281.32 92.32 C 283.14 80.29 291.62 64.86 289.00 52.00
C 286.01 48.73 285.70 41.53 280.00 41.00
C 276.35 51.38 267.94 41.83 275.00 36.00
C 271.15 36.25 267.90 39.36 264.00 37.00
C 265.13 34.46 265.12 32.07 263.00 30.00
C 267.78 32.04 272.69 33.57 278.00 34.00
C 275.49 29.53 272.35 24.98 268.00 22.00
C 267.77 23.13 266.87 26.04 266.00 27.00
C 259.46 23.13 259.45 17.00 264.75 11.75 C 270.05 6.50 279.45 15.65 272.00 19.00
C 275.16 24.49 278.11 30.53 284.00 34.00
C 283.50 28.94 285.68 24.59 287.00 20.00
C 292.10 22.88 284.86 35.28 295.00 34.00
C 294.05 38.50 289.48 41.69 291.00 47.00
C 291.89 48.65 293.83 52.12 294.00 54.00
C 297.67 56.84 306.72 58.90 300.00 66.00
C 299.75 66.26 299.89 67.52 300.00 68.00
C 300.66 70.96 302.39 73.73 302.00 77.00
C 300.72 77.27 299.28 76.23 299.00 75.00
C 298.86 74.78 298.00 75.00 298.00 75.00
C 298.22 75.38 298.00 76.00 298.00 76.00
C 298.00 86.94 297.93 100.37 293.00 110.00
C 288.68 118.44 281.82 132.13 272.00 139.00
C 271.78 139.38 272.00 140.00 272.00 140.00
C 271.20 141.64 269.57 143.19 268.00 144.00
C 268.68 146.42 270.81 147.92 272.00 150.00
C 276.50 153.69 278.64 156.49 280.00 162.00
C 280.79 165.20 282.03 170.78 278.00 173.00
C 275.34 169.05 280.20 164.09 277.00 160.00
C 275.21 160.59 275.53 160.04 275.00 162.00
C 274.06 165.50 274.60 170.87 274.00 174.00
C 273.49 180.48 269.96 184.92 265.00 189.00
C 262.79 190.81 261.13 192.54 258.00 193.00
C 255.92 193.88 255.71 195.92 256.00 198.00
C 256.07 198.49 256.00 199.00 256.00 199.00
C 266.42 212.00 275.53 226.72 290.70 235.30 C 305.86 243.89 325.95 249.99 341.08 255.92 C 356.20 261.86 375.65 288.90 353.00 294.00
C 344.40 295.94 341.35 293.10 334.00 290.00
C 332.71 289.83 330.34 289.36 329.00 289.00
C 337.43 296.31 348.95 319.70 344.01 333.01 C 339.07 346.31 316.36 353.38 305.00 358.00
C 294.22 362.39 282.27 363.24 271.00 367.00
C 262.94 369.69 256.58 374.94 248.00 377.00
C 244.11 378.66 239.87 380.82 236.00 383.00
C 236.22 385.13 235.53 386.16 235.00 388.00
C 234.43 389.99 233.51 391.99 233.00 394.00
C 230.69 403.19 224.15 412.55 233.00 419.00
C 245.44 421.76 263.57 414.28 272.00 425.00
C 356.33 400.79 425.08 325.99 432.00 237.00
L 432.00 195.00
C 423.97 95.59 336.34 8.02 237.00 0.00
L 195.00 0.00
C 95.66 8.02 8.03 95.59 0.00 195.00
M 284.00 27.00 
C 281.12 27.23 280.21 22.89 277.00 24.00
C 274.86 13.86 286.90 20.18 284.00 27.00
M 261.00 30.00 
C 249.59 30.60 262.87 17.81 261.00 30.00 Z"/>
</g>
<g fill="#000000" fill-opacity="0.00" stroke="None">
<path d="
M 432.00 195.00 
L 432.00 0.00
L 237.00 0.00
C 336.34 8.02 423.97 95.59 432.00 195.00 Z"/>
</g>
<g fill="#E6C9B8" fill-opacity="0.97" stroke="None">
<path d="
M 268.00 22.00 
C 268.17 21.12 265.91 18.07 269.00 18.00
C 268.56 17.26 269.35 15.79 269.00 15.00
C 266.10 14.10 264.94 17.92 262.00 17.00
C 262.50 12.39 268.15 11.54 272.00 12.00
C 271.93 14.41 272.44 16.95 271.00 19.00
C 271.48 19.09 272.00 19.00 272.00 19.00
C 279.45 15.65 270.05 6.50 264.75 11.75 C 259.45 17.00 259.46 23.13 266.00 27.00
C 266.87 26.04 267.77 23.13 268.00 22.00 Z"/>
</g>
<g fill="#D09F8B" fill-opacity="0.96" stroke="None">
<path d="
M 269.00 18.00 
C 269.22 18.37 270.59 18.93 271.00 19.00
C 272.44 16.95 271.93 14.41 272.00 12.00
C 268.15 11.54 262.50 12.39 262.00 17.00
C 264.94 17.92 266.10 14.10 269.00 15.00
C 269.35 15.79 268.56 17.26 269.00 18.00 Z"/>
</g>
<g fill="#C8CBBF" fill-opacity="0.96" stroke="None">
<path d="
M 268.00 22.00 
C 272.35 24.98 275.49 29.53 278.00 34.00
C 272.69 33.57 267.78 32.04 263.00 30.00
C 265.12 32.07 265.13 34.46 264.00 37.00
C 267.90 39.36 271.15 36.25 275.00 36.00
C 267.94 41.83 276.35 51.38 280.00 41.00
C 285.70 41.53 286.01 48.73 289.00 52.00
C 289.47 52.51 290.54 52.60 291.00 53.00
C 287.54 47.06 283.69 41.19 281.00 35.00
C 285.77 37.82 288.30 42.91 291.00 47.00
C 289.48 41.69 294.05 38.50 295.00 34.00
C 284.86 35.28 292.10 22.88 287.00 20.00
C 285.68 24.59 283.50 28.94 284.00 34.00
C 278.11 30.53 275.16 24.49 272.00 19.00
C 272.00 19.00 271.48 19.09 271.00 19.00
C 270.59 18.93 269.22 18.37 269.00 18.00
C 265.91 18.07 268.17 21.12 268.00 22.00 Z"/>
</g>
<g fill="#DFB9AB" fill-opacity="0.97" stroke="None">
<path d="
M 284.00 27.00 
C 286.90 20.18 274.86 13.86 277.00 24.00
C 280.21 22.89 281.12 27.23 284.00 27.00 Z"/>
</g>
<g fill="#D1BCAB" fill-opacity="0.97" stroke="None">
<path d="
M 261.00 30.00 
C 262.87 17.81 249.59 30.60 261.00 30.00 Z"/>
</g>
<g fill="#93998B" fill-opacity="0.96" stroke="None">
<path d="
M 291.00 53.00 
C 291.74 53.64 292.03 53.82 292.00 55.00
C 292.30 55.58 293.28 56.69 294.00 57.00
C 294.00 56.00 294.00 55.00 294.00 54.00
C 293.83 52.12 291.89 48.65 291.00 47.00
C 288.30 42.91 285.77 37.82 281.00 35.00
C 283.69 41.19 287.54 47.06 291.00 53.00 Z"/>
</g>
<g fill="#F3DFCD" fill-opacity="0.93" stroke="None">
<path d="
M 263.00 121.00 
C 272.48 115.14 280.52 104.91 282.78 93.78 C 285.03 82.64 291.67 66.59 292.00 55.00
C 292.03 53.82 291.74 53.64 291.00 53.00
C 290.54 52.60 289.47 52.51 289.00 52.00
C 291.62 64.86 283.14 80.29 281.32 92.32 C 279.50 104.35 270.15 111.81 263.00 121.00 Z"/>
</g>
<g fill="#DBAC86" fill-opacity="0.99" stroke="None">
<path d="
M 292.00 55.00 
C 291.67 66.59 285.03 82.64 282.78 93.78 C 280.52 104.91 272.48 115.14 263.00 121.00
C 262.68 121.20 262.27 121.83 262.00 122.00
C 269.03 123.62 276.83 130.56 272.00 139.00
C 281.82 132.13 288.68 118.44 293.00 110.00
C 293.01 109.94 291.92 100.07 293.98 94.98 C 296.03 89.88 295.80 81.05 298.00 76.00
C 298.00 76.00 298.22 75.38 298.00 75.00
C 296.60 72.55 297.03 69.80 297.00 67.00
C 298.28 67.53 298.86 66.03 300.00 66.00
C 306.72 58.90 297.67 56.84 294.00 54.00
C 294.00 55.00 294.00 56.00 294.00 57.00
C 293.28 56.69 292.30 55.58 292.00 55.00 Z"/>
</g>
<g fill="#AB9A7D" fill-opacity="0.95" stroke="None">
<path d="
M 298.00 75.00 
C 298.00 75.00 298.86 74.78 299.00 75.00
C 297.22 71.97 297.94 70.17 300.00 68.00
C 299.89 67.52 299.75 66.26 300.00 66.00
C 298.86 66.03 298.28 67.53 297.00 67.00
C 297.03 69.80 296.60 72.55 298.00 75.00 Z"/>
</g>
<g fill="#8D9980" fill-opacity="0.93" stroke="None">
<path d="
M 299.00 75.00 
C 299.28 76.23 300.72 77.27 302.00 77.00
C 302.39 73.73 300.66 70.96 300.00 68.00
C 297.94 70.17 297.22 71.97 299.00 75.00 Z"/>
</g>
<g fill="#4B382A" fill-opacity="0.99" stroke="None">
<path d="
M 204.00 76.00 
C 196.34 81.25 195.11 91.25 194.00 99.00
C 193.85 102.81 193.82 106.67 192.00 110.00
C 190.68 112.42 187.67 115.39 185.00 116.00
C 179.76 118.40 169.88 114.84 164.93 118.93 C 159.97 123.01 155.27 123.49 153.08 130.08 C 150.88 136.66 152.64 144.94 152.00 152.00
C 152.57 152.38 153.39 152.61 154.00 153.00
C 155.86 151.04 153.23 143.91 154.00 141.00 C 154.77 138.09 154.01 133.05 155.00 130.00
C 155.92 127.16 159.11 123.35 162.00 122.00
C 163.09 121.49 164.75 121.21 166.00 121.00
C 170.64 119.30 175.41 118.49 181.00 119.00
C 183.65 118.24 187.79 115.89 190.00 118.00
C 187.81 119.69 185.46 120.82 183.00 122.00
C 172.19 126.35 158.80 127.28 158.00 142.00
C 157.81 145.54 157.68 149.47 158.00 153.00
C 158.50 153.00 159.00 153.00 159.00 153.00
C 173.04 148.09 192.00 144.51 207.00 144.00
C 207.94 143.97 209.07 144.18 210.00 144.00
C 211.43 143.72 213.63 142.55 215.00 142.00
C 219.56 138.52 218.32 130.25 216.00 126.00
C 211.19 120.15 202.24 118.62 202.00 111.00
C 204.83 111.52 208.95 110.88 208.00 107.00
C 209.95 103.31 212.32 101.19 215.00 98.00
C 218.15 94.24 221.15 89.01 221.00 84.00
C 234.16 86.62 238.60 93.21 242.00 105.00 C 245.40 116.79 232.48 128.19 240.00 136.00
C 243.82 130.11 248.16 137.80 250.00 140.00
C 249.85 139.55 250.11 138.47 250.00 138.00
C 248.00 129.34 251.41 121.66 252.00 113.00
C 252.42 106.86 250.74 101.58 249.00 96.00
C 252.89 98.29 253.89 103.04 255.00 107.00
C 256.06 114.93 253.43 122.58 252.00 130.00
C 250.94 147.82 270.62 144.95 277.00 158.00
C 277.20 158.40 277.00 159.00 277.00 159.00
C 279.68 161.05 278.92 164.86 279.00 168.00
C 280.87 166.86 279.61 163.87 280.00 162.00
C 278.64 156.49 276.50 153.69 272.00 150.00
C 270.77 148.99 269.38 147.72 268.00 147.00
C 267.61 146.79 267.00 147.00 267.00 147.00
C 263.42 145.25 259.38 140.35 258.00 137.00
C 255.95 132.02 256.59 128.21 257.00 123.00
C 258.42 105.09 252.75 95.95 242.25 82.75 C 231.74 69.55 218.31 69.31 204.00 76.00
M 202.00 89.00 
C 201.72 91.93 201.49 95.38 205.00 96.00
C 201.54 108.92 193.53 97.67 200.00 90.00
C 200.81 88.08 201.91 85.81 204.00 85.00
C 203.85 86.41 203.35 88.34 202.00 89.00 Z"/>
</g>
<g fill="#A1978E" fill-opacity="0.92" stroke="None">
<path d="
M 194.00 99.00 
C 195.11 91.25 196.34 81.25 204.00 76.00
C 194.30 80.54 194.37 89.30 194.00 99.00 Z"/>
</g>
<g fill="#EED6C2" fill-opacity="0.93" stroke="None">
<path d="
M 293.00 110.00 
C 297.93 100.37 298.00 86.94 298.00 76.00
C 295.80 81.05 296.03 89.88 293.98 94.98 C 291.92 100.07 293.01 109.94 293.00 110.00 Z"/>
</g>
<g fill="#D29F79" fill-opacity="0.99" stroke="None">
<path d="
M 215.00 98.00 
C 214.13 102.82 216.90 99.46 220.00 102.00
C 215.98 103.67 211.79 104.69 208.00 107.00
C 208.95 110.88 204.83 111.52 202.00 111.00
C 202.24 118.62 211.19 120.15 216.00 126.00
C 218.92 129.56 221.25 136.84 217.00 141.00
C 220.36 141.64 222.87 150.43 229.02 148.98 C 235.18 147.52 238.62 144.14 237.00 137.00
C 242.88 136.95 243.46 144.97 248.00 147.00
C 247.12 144.14 245.94 141.40 244.00 139.00
C 242.50 137.14 241.77 137.13 240.00 136.00
C 232.48 128.19 245.40 116.79 242.00 105.00 C 238.60 93.21 234.16 86.62 221.00 84.00
C 221.15 89.01 218.15 94.24 215.00 98.00
M 238.00 97.00 
C 234.71 96.99 232.07 99.12 229.00 100.00
C 229.03 96.11 235.73 94.66 238.00 97.00
M 238.00 102.00 
C 236.46 103.25 233.45 105.44 232.00 103.00
C 233.26 102.12 236.75 99.78 238.00 102.00
M 220.00 107.00 
C 219.02 110.03 215.36 108.70 213.00 109.00
C 213.98 105.97 217.64 107.30 220.00 107.00
M 233.00 118.00 
C 233.71 121.69 225.85 122.54 226.00 119.00
C 228.49 119.29 230.39 117.36 233.00 118.00 Z"/>
</g>
<g fill="#83725D" fill-opacity="0.93" stroke="None">
<path d="
M 200.00 90.00 
C 200.30 89.48 201.61 89.33 202.00 89.00
C 203.35 88.34 203.85 86.41 204.00 85.00
C 201.91 85.81 200.81 88.08 200.00 90.00 Z"/>
</g>
<g fill="#B38173" fill-opacity="0.96" stroke="None">
<path d="
M 200.00 90.00 
C 193.53 97.67 201.54 108.92 205.00 96.00
C 201.49 95.38 201.72 91.93 202.00 89.00
C 201.61 89.33 200.30 89.48 200.00 90.00 Z"/>
</g>
<g fill="#916343" fill-opacity="0.95" stroke="None">
<path d="
M 238.00 97.00 
C 235.73 94.66 229.03 96.11 229.00 100.00
C 232.07 99.12 234.71 96.99 238.00 97.00 Z"/>
</g>
<g fill="#7C664C" fill-opacity="0.95" stroke="None">
<path d="
M 252.00 113.00 
C 252.37 110.93 253.79 107.75 253.00 105.00
C 254.26 105.08 253.56 107.06 255.00 107.00
C 253.89 103.04 252.89 98.29 249.00 96.00
C 250.74 101.58 252.42 106.86 252.00 113.00 Z"/>
</g>
<g fill="#8B6248" fill-opacity="0.95" stroke="None">
<path d="
M 208.00 107.00 
C 211.79 104.69 215.98 103.67 220.00 102.00
C 216.90 99.46 214.13 102.82 215.00 98.00
C 212.32 101.19 209.95 103.31 208.00 107.00 Z"/>
</g>
<g fill="#7B4F2F" fill-opacity="0.95" stroke="None">
<path d="
M 238.00 102.00 
C 236.75 99.78 233.26 102.12 232.00 103.00
C 233.45 105.44 236.46 103.25 238.00 102.00 Z"/>
</g>
<g fill="#B99E7B" fill-opacity="0.96" stroke="None">
<path d="
M 252.00 113.00 
C 251.41 121.66 248.00 129.34 250.00 138.00
C 250.86 135.98 251.61 132.04 252.00 130.00
C 253.43 122.58 256.06 114.93 255.00 107.00
C 253.56 107.06 254.26 105.08 253.00 105.00
C 253.79 107.75 252.37 110.93 252.00 113.00 Z"/>
</g>
<g fill="#704422" fill-opacity="0.96" stroke="None">
<path d="
M 220.00 107.00 
C 217.64 107.30 213.98 105.97 213.00 109.00
C 215.36 108.70 219.02 110.03 220.00 107.00 Z"/>
</g>
<g fill="#766A5F" fill-opacity="0.93" stroke="None">
<path d="
M 186.00 114.00 
C 185.69 114.24 185.21 115.90 185.00 116.00
C 187.67 115.39 190.68 112.42 192.00 110.00
C 190.78 111.89 187.48 112.83 186.00 114.00 Z"/>
</g>
<g fill="#AA9F95" fill-opacity="0.93" stroke="None">
<path d="
M 151.00 152.00 
C 151.00 152.02 152.00 152.00 152.00 152.00
C 152.64 144.94 150.88 136.66 153.08 130.08 C 155.27 123.49 159.97 123.01 164.93 118.93 C 169.88 114.84 179.76 118.40 185.00 116.00
C 185.21 115.90 185.69 114.24 186.00 114.00
C 176.65 116.07 163.58 114.52 157.25 123.25 C 150.91 131.97 145.52 141.59 151.00 152.00 Z"/>
</g>
<g fill="#978169" fill-opacity="0.95" stroke="None">
<path d="
M 181.00 119.00 
C 180.87 119.04 181.00 120.00 181.00 120.00
C 183.58 120.11 183.45 122.09 183.00 122.00
C 185.46 120.82 187.81 119.69 190.00 118.00
C 187.79 115.89 183.65 118.24 181.00 119.00 Z"/>
</g>
<g fill="#F0C2B4" fill-opacity="0.95" stroke="None">
<path d="
M 233.00 118.00 
C 230.39 117.36 228.49 119.29 226.00 119.00
C 225.85 122.54 233.71 121.69 233.00 118.00 Z"/>
</g>
<g fill="#6E5941" fill-opacity="0.96" stroke="None">
<path d="
M 166.00 121.00 
C 171.00 120.17 175.86 120.46 181.00 120.00
C 181.00 120.00 180.87 119.04 181.00 119.00
C 175.41 118.49 170.64 119.30 166.00 121.00 Z"/>
</g>
<g fill="#D3B89A" fill-opacity="0.97" stroke="None">
<path d="
M 166.00 121.00 
C 164.75 121.21 163.09 121.49 162.00 122.00
C 160.33 122.96 155.65 128.50 155.00 130.00
C 154.01 133.05 154.77 138.09 154.00 141.00 C 153.23 143.91 155.86 151.04 154.00 153.00
C 155.56 153.99 155.54 155.74 157.00 153.00
C 156.65 149.14 157.49 145.12 158.00 142.00
C 158.80 127.28 172.19 126.35 183.00 122.00
C 183.45 122.09 183.58 120.11 181.00 120.00
C 175.86 120.46 171.00 120.17 166.00 121.00 Z"/>
</g>
<g fill="#77624A" fill-opacity="0.92" stroke="None">
<path d="
M 155.00 130.00 
C 155.65 128.50 160.33 122.96 162.00 122.00
C 159.11 123.35 155.92 127.16 155.00 130.00 Z"/>
</g>
<g fill="#C97762" fill-opacity="0.99" stroke="None">
<path d="
M 257.00 123.00 
C 256.59 128.21 255.95 132.02 258.00 137.00
C 259.91 140.65 264.56 143.52 267.00 147.00
C 267.00 147.00 267.61 146.79 268.00 147.00
C 266.17 143.85 269.53 141.72 272.00 140.00
C 272.00 140.00 271.78 139.38 272.00 139.00
C 276.83 130.56 269.03 123.62 262.00 122.00
C 260.78 122.79 258.42 122.82 257.00 123.00 Z"/>
</g>
<g fill="#84654C" fill-opacity="0.94" stroke="None">
<path d="
M 215.00 142.00 
C 215.37 141.85 216.77 141.23 217.00 141.00
C 221.25 136.84 218.92 129.56 216.00 126.00
C 218.32 130.25 219.56 138.52 215.00 142.00 Z"/>
</g>
<g fill="#9D8168" fill-opacity="0.95" stroke="None">
<path d="
M 250.00 138.00 
C 250.11 138.47 249.85 139.55 250.00 140.00
C 251.67 144.85 260.31 148.76 264.00 151.00
C 266.48 152.03 269.08 152.96 271.00 155.00
C 270.28 154.07 269.49 153.04 269.00 152.00
C 272.54 152.22 273.93 156.74 277.00 158.00
C 270.62 144.95 250.94 147.82 252.00 130.00
C 251.61 132.04 250.86 135.98 250.00 138.00 Z"/>
</g>
<g fill="#734E37" fill-opacity="0.95" stroke="None">
<path d="
M 240.00 136.00 
C 241.77 137.13 242.50 137.14 244.00 139.00
C 254.70 147.43 265.36 159.20 264.00 174.00
C 266.27 164.23 261.31 154.81 255.00 147.00
C 258.09 147.98 260.72 150.19 264.00 151.00
C 260.31 148.76 251.67 144.85 250.00 140.00
C 248.16 137.80 243.82 130.11 240.00 136.00 Z"/>
</g>
<g fill="#DFBA99" fill-opacity="1.00" stroke="None">
<path d="
M 217.00 141.00 
C 216.77 141.23 215.37 141.85 215.00 142.00
C 213.63 142.55 211.43 143.72 210.00 144.00
C 205.12 148.69 212.11 156.28 217.75 160.25 C 223.40 164.22 227.71 167.97 237.01 168.99 C 246.30 170.02 249.68 161.18 249.00 152.00
C 248.85 149.93 248.58 148.88 248.00 147.00
C 243.46 144.97 242.88 136.95 237.00 137.00
C 238.62 144.14 235.18 147.52 229.02 148.98 C 222.87 150.43 220.36 141.64 217.00 141.00 Z"/>
</g>
<g fill="#7A5140" fill-opacity="0.95" stroke="None">
<path d="
M 267.00 147.00 
C 264.56 143.52 259.91 140.65 258.00 137.00
C 259.38 140.35 263.42 145.25 267.00 147.00 Z"/>
</g>
<g fill="#D28762" fill-opacity="1.00" stroke="None">
<path d="
M 248.00 147.00 
C 248.58 148.88 248.85 149.93 249.00 152.00
C 251.31 160.58 251.96 168.84 240.99 170.99 C 230.02 173.15 203.01 160.14 206.00 145.00
C 199.15 147.07 191.16 148.19 184.00 149.00 C 176.84 149.81 168.67 153.64 162.00 154.00
C 173.59 157.02 171.65 166.80 161.00 169.00
C 165.40 169.00 168.84 170.36 172.00 171.00
C 181.00 171.00 198.73 169.48 205.00 177.00
C 207.66 178.56 213.71 182.51 213.00 188.00
C 210.47 185.41 209.90 180.63 206.00 179.00
C 209.02 183.88 212.64 189.49 214.00 195.00
C 214.08 195.25 214.80 195.68 215.00 196.00
C 219.92 199.84 230.11 196.55 236.01 196.01 C 241.91 195.46 251.59 195.91 256.00 192.00
C 259.51 187.04 262.56 180.17 264.00 174.00
C 265.36 159.20 254.70 147.43 244.00 139.00
C 245.94 141.40 247.12 144.14 248.00 147.00 Z"/>
</g>
<g fill="#BE9B8B" fill-opacity="0.91" stroke="None">
<path d="
M 268.00 147.00 
C 269.38 147.72 270.77 148.99 272.00 150.00
C 270.81 147.92 268.68 146.42 268.00 144.00
C 269.57 143.19 271.20 141.64 272.00 140.00
C 269.53 141.72 266.17 143.85 268.00 147.00 Z"/>
</g>
<g fill="#876049" fill-opacity="1.00" stroke="None">
<path d="
M 157.00 153.00 
C 157.11 152.79 158.00 153.00 158.00 153.00
C 157.68 149.47 157.81 145.54 158.00 142.00
C 157.49 145.12 156.65 149.14 157.00 153.00 Z"/>
</g>
<g fill="#875E47" fill-opacity="0.93" stroke="None">
<path d="
M 159.00 153.00 
C 160.12 154.04 160.48 153.60 162.00 154.00
C 168.67 153.64 176.84 149.81 184.00 149.00 C 191.16 148.19 199.15 147.07 206.00 145.00
C 206.35 144.89 206.73 144.13 207.00 144.00
C 192.00 144.51 173.04 148.09 159.00 153.00 Z"/>
</g>
<g fill="#D5A07C" fill-opacity="0.93" stroke="None">
<path d="
M 206.00 145.00 
C 203.01 160.14 230.02 173.15 240.99 170.99 C 251.96 168.84 251.31 160.58 249.00 152.00
C 249.68 161.18 246.30 170.02 237.01 168.99 C 227.71 167.97 223.40 164.22 217.75 160.25 C 212.11 156.28 205.12 148.69 210.00 144.00
C 209.07 144.18 207.94 143.97 207.00 144.00
C 206.73 144.13 206.35 144.89 206.00 145.00 Z"/>
</g>
<g fill="#4D3828" fill-opacity="0.98" stroke="None">
<path d="
M 264.00 174.00 
C 262.56 180.17 259.51 187.04 256.00 192.00
C 256.28 191.75 257.57 192.17 258.00 192.00
C 260.27 191.11 262.91 190.21 265.00 189.00
C 269.96 184.92 273.49 180.48 274.00 174.00
C 274.50 167.74 274.30 161.24 271.00 156.00
C 270.77 155.64 271.00 155.00 271.00 155.00
C 269.08 152.96 266.48 152.03 264.00 151.00
C 260.72 150.19 258.09 147.98 255.00 147.00
C 261.31 154.81 266.27 164.23 264.00 174.00
M 265.00 182.00 
C 265.55 184.37 263.47 187.14 261.00 187.00
C 260.95 184.78 263.29 183.01 265.00 182.00 Z"/>
</g>
<g fill="#EACDB5" fill-opacity="0.91" stroke="None">
<path d="
M 75.00 166.00 
C 73.41 163.52 81.38 159.85 84.23 158.23 C 87.08 156.61 93.15 153.51 98.00 154.00 C 102.85 154.49 110.54 153.99 116.00 154.00 C 121.46 154.01 127.51 154.22 133.00 155.00 C 138.49 155.77 145.38 154.42 151.00 155.00
C 151.00 154.00 151.00 153.00 151.00 152.00
C 142.35 152.13 128.57 154.83 120.07 152.93 C 111.58 151.03 97.25 152.91 90.22 153.22 C 83.20 153.54 71.81 164.09 75.00 166.00 Z"/>
</g>
<g fill="#DBA983" fill-opacity="0.99" stroke="None">
<path d="
M 75.00 166.00 
C 76.73 167.04 78.04 166.78 80.00 167.00
C 82.81 166.40 85.08 160.15 89.00 161.00
C 89.95 167.14 99.22 159.61 105.00 162.00 C 110.78 164.39 119.45 162.84 125.00 165.00
C 128.95 165.95 133.16 166.66 137.00 168.00
C 138.19 168.42 139.78 167.68 141.00 168.00
C 141.53 169.28 140.03 169.86 140.00 171.00
C 140.49 170.93 141.00 171.00 141.00 171.00
C 142.89 166.84 156.84 169.00 161.00 169.00
C 171.65 166.80 173.59 157.02 162.00 154.00
C 160.48 153.60 160.12 154.04 159.00 153.00
C 159.00 153.00 158.50 153.00 158.00 153.00
C 158.00 153.00 157.11 152.79 157.00 153.00
C 155.54 155.74 155.56 153.99 154.00 153.00
C 153.39 152.61 152.57 152.38 152.00 152.00
C 152.00 152.00 151.00 152.02 151.00 152.00
C 151.00 153.00 151.00 154.00 151.00 155.00
C 145.38 154.42 138.49 155.77 133.00 155.00 C 127.51 154.22 121.46 154.01 116.00 154.00 C 110.54 153.99 102.85 154.49 98.00 154.00 C 93.15 153.51 87.08 156.61 84.23 158.23 C 81.38 159.85 73.41 163.52 75.00 166.00 Z"/>
</g>
<g fill="#E5D2BE" fill-opacity="0.96" stroke="None">
<path d="
M 271.00 155.00 
C 271.00 155.00 270.77 155.64 271.00 156.00
C 272.73 157.08 274.65 160.30 275.00 162.00
C 275.53 160.04 275.21 160.59 277.00 160.00
C 276.78 159.62 277.00 159.00 277.00 159.00
C 277.00 159.00 277.20 158.40 277.00 158.00
C 273.93 156.74 272.54 152.22 269.00 152.00
C 269.49 153.04 270.28 154.07 271.00 155.00 Z"/>
</g>
<g fill="#988879" fill-opacity="0.95" stroke="None">
<path d="
M 274.00 174.00 
C 274.60 170.87 274.06 165.50 275.00 162.00
C 274.65 160.30 272.73 157.08 271.00 156.00
C 274.30 161.24 274.50 167.74 274.00 174.00 Z"/>
</g>
<g fill="#A8A29B" fill-opacity="0.95" stroke="None">
<path d="
M 277.00 160.00 
C 280.20 164.09 275.34 169.05 278.00 173.00
C 282.03 170.78 280.79 165.20 280.00 162.00
C 279.61 163.87 280.87 166.86 279.00 168.00
C 278.92 164.86 279.68 161.05 277.00 159.00
C 277.00 159.00 276.78 159.62 277.00 160.00 Z"/>
</g>
<g fill="#E8CAB1" fill-opacity="0.95" stroke="None">
<path d="
M 80.00 167.00 
C 94.45 168.65 109.75 163.20 125.00 165.00
C 119.45 162.84 110.78 164.39 105.00 162.00 C 99.22 159.61 89.95 167.14 89.00 161.00
C 85.08 160.15 82.81 166.40 80.00 167.00 Z"/>
</g>
<g fill="#E7D0BD" fill-opacity="0.93" stroke="None">
<path d="
M 135.00 173.00 
C 136.55 172.02 138.19 171.24 140.00 171.00
C 140.03 169.86 141.53 169.28 141.00 168.00
C 139.78 167.68 138.19 168.42 137.00 168.00
C 136.94 169.44 138.92 168.74 139.00 170.00
C 136.80 169.45 136.17 171.90 135.00 173.00 Z"/>
</g>
<g fill="#6A4633" fill-opacity="0.97" stroke="None">
<path d="
M 141.00 171.00 
C 151.33 171.00 161.67 171.00 172.00 171.00
C 168.84 170.36 165.40 169.00 161.00 169.00
C 156.84 169.00 142.89 166.84 141.00 171.00 Z"/>
</g>
<g fill="#49372B" fill-opacity="1.00" stroke="None">
<path d="
M 135.00 173.00 
C 126.69 177.87 124.04 188.71 128.00 197.00
C 130.12 195.62 128.50 192.20 129.00 190.00
C 129.28 188.78 130.41 186.03 131.00 185.00
C 132.78 181.86 135.97 179.29 139.00 178.00
C 141.73 176.84 144.93 176.10 148.00 176.00
C 146.84 177.49 144.66 178.02 143.00 179.00
C 141.03 180.54 138.30 184.13 137.00 186.00
C 136.55 186.82 135.18 188.43 135.00 189.00
C 133.27 200.36 139.34 209.31 150.00 212.00
C 151.33 212.01 152.67 211.99 154.00 212.00
C 152.94 210.45 152.09 207.11 154.00 206.00
C 155.25 202.29 158.42 200.21 162.00 199.00
C 163.90 198.36 166.46 197.43 169.00 198.00
C 168.51 199.83 166.65 200.18 165.00 200.00
C 163.40 201.50 162.35 203.93 162.00 206.00
C 165.58 203.73 171.16 205.13 173.00 209.00
C 173.30 209.22 173.73 209.87 174.00 210.00
C 176.72 210.91 179.32 211.91 182.00 213.00
C 188.02 214.27 193.07 212.77 199.00 213.00
C 199.50 213.02 200.51 213.06 201.00 213.00
C 203.55 211.22 205.79 210.02 209.00 209.00
C 210.06 208.66 210.96 208.57 212.00 208.00
C 216.03 204.95 215.01 199.09 214.00 195.00
C 212.64 189.49 209.02 183.88 206.00 179.00
C 205.67 178.47 205.36 177.43 205.00 177.00
C 198.73 169.48 181.00 171.00 172.00 171.00
C 161.67 171.00 151.33 171.00 141.00 171.00
C 141.00 171.00 140.49 170.93 140.00 171.00
C 138.19 171.24 136.55 172.02 135.00 173.00 Z"/>
</g>
<g fill="#A79B91" fill-opacity="0.94" stroke="None">
<path d="
M 139.00 178.00 
C 137.12 179.05 132.28 183.09 131.00 185.00
C 130.41 186.03 129.28 188.78 129.00 190.00
C 132.83 187.12 134.15 180.29 140.00 180.00
C 137.91 182.75 135.53 185.51 135.00 189.00
C 135.18 188.43 136.55 186.82 137.00 186.00
C 138.57 183.11 140.21 180.86 143.00 179.00
C 144.66 178.02 146.84 177.49 148.00 176.00
C 144.93 176.10 141.73 176.84 139.00 178.00 Z"/>
</g>
<g fill="#AE6E52" fill-opacity="0.89" stroke="None">
<path d="
M 205.00 177.00 
C 205.36 177.43 205.67 178.47 206.00 179.00
C 209.90 180.63 210.47 185.41 213.00 188.00
C 213.71 182.51 207.66 178.56 205.00 177.00 Z"/>
</g>
<g fill="#6C5E51" fill-opacity="0.93" stroke="None">
<path d="
M 131.00 185.00 
C 132.28 183.09 137.12 179.05 139.00 178.00
C 135.97 179.29 132.78 181.86 131.00 185.00 Z"/>
</g>
<g fill="#7B6F64" fill-opacity="0.91" stroke="None">
<path d="
M 137.00 186.00 
C 138.30 184.13 141.03 180.54 143.00 179.00
C 140.21 180.86 138.57 183.11 137.00 186.00 Z"/>
</g>
<g fill="#73665A" fill-opacity="0.94" stroke="None">
<path d="
M 265.00 182.00 
C 263.29 183.01 260.95 184.78 261.00 187.00
C 263.47 187.14 265.55 184.37 265.00 182.00 Z"/>
</g>
<g fill="#A79D92" fill-opacity="0.93" stroke="None">
<path d="
M 258.00 192.00 
C 258.23 192.34 258.00 193.00 258.00 193.00
C 261.13 192.54 262.79 190.81 265.00 189.00
C 262.91 190.21 260.27 191.11 258.00 192.00 Z"/>
</g>
<g fill="#D4A480" fill-opacity="0.98" stroke="None">
<path d="
M 215.00 196.00 
C 216.19 197.93 216.34 200.72 216.00 203.00
C 218.60 197.85 228.23 198.37 233.67 197.67 C 239.11 196.97 250.71 195.21 256.00 198.00
C 255.71 195.92 255.92 193.88 258.00 193.00
C 258.00 193.00 258.23 192.34 258.00 192.00
C 257.57 192.17 256.28 191.75 256.00 192.00
C 251.59 195.91 241.91 195.46 236.01 196.01 C 230.11 196.55 219.92 199.84 215.00 196.00 Z"/>
</g>
<g fill="#937966" fill-opacity="0.96" stroke="None">
<path d="
M 212.00 208.00 
C 213.08 207.41 213.96 206.60 215.00 206.00
C 215.75 205.00 215.82 204.20 216.00 203.00
C 216.34 200.72 216.19 197.93 215.00 196.00
C 214.80 195.68 214.08 195.25 214.00 195.00
C 215.01 199.09 216.03 204.95 212.00 208.00 Z"/>
</g>
<g fill="#D4BC9B" fill-opacity="0.97" stroke="None">
<path d="
M 216.00 203.00 
C 215.82 204.20 215.75 205.00 215.00 206.00
C 225.38 200.01 237.83 200.88 250.00 201.00
C 252.45 212.29 254.73 224.29 258.00 235.00
C 256.21 223.73 254.10 213.15 252.00 202.00
C 253.54 202.37 254.40 200.57 256.00 201.00
C 255.83 200.57 256.00 199.50 256.00 199.00
C 256.00 199.00 256.07 198.49 256.00 198.00
C 250.71 195.21 239.11 196.97 233.67 197.67 C 228.23 198.37 218.60 197.85 216.00 203.00 Z"/>
</g>
<g fill="#A3988E" fill-opacity="0.95" stroke="None">
<path d="
M 162.00 199.00 
C 166.01 199.98 155.93 205.22 161.00 209.00
C 165.32 206.99 169.87 208.62 174.00 210.00
C 173.73 209.87 173.30 209.22 173.00 209.00
C 169.39 206.37 164.87 204.78 161.00 208.00
C 160.21 204.64 161.95 201.39 165.00 200.00
C 166.65 200.18 168.51 199.83 169.00 198.00
C 166.46 197.43 163.90 198.36 162.00 199.00 Z"/>
</g>
<g fill="#DDDFD2" fill-opacity="0.95" stroke="None">
<path d="
M 256.00 201.00 
C 262.46 217.02 275.16 227.21 289.23 236.77 C 303.30 246.33 322.86 249.26 338.00 257.00
C 344.74 260.45 349.65 264.65 355.00 270.00
C 359.64 274.64 365.03 280.30 362.00 287.00
C 361.19 288.79 359.48 289.96 358.00 291.00
C 356.62 291.96 354.49 293.52 353.00 294.00
C 375.65 288.90 356.20 261.86 341.08 255.92 C 325.95 249.99 305.86 243.89 290.70 235.30 C 275.53 226.72 266.42 212.00 256.00 199.00
C 256.00 199.50 255.83 200.57 256.00 201.00 Z"/>
</g>
<g fill="#655A51" fill-opacity="0.91" stroke="None">
<path d="
M 173.00 209.00 
C 171.16 205.13 165.58 203.73 162.00 206.00
C 162.35 203.93 163.40 201.50 165.00 200.00
C 161.95 201.39 160.21 204.64 161.00 208.00
C 164.87 204.78 169.39 206.37 173.00 209.00 Z"/>
</g>
<g fill="#F0C9AD" fill-opacity="0.99" stroke="None">
<path d="
M 215.00 206.00 
C 213.96 206.60 213.08 207.41 212.00 208.00
C 210.96 208.57 210.06 208.66 209.00 209.00
C 208.49 209.41 208.28 210.46 208.00 211.00
C 204.12 218.55 196.65 224.17 190.25 230.25 C 183.84 236.32 175.35 239.32 167.01 243.01 C 158.66 246.69 147.79 248.11 138.22 250.22 C 128.65 252.34 114.23 251.65 104.00 252.00 C 93.77 252.35 78.31 250.04 69.00 251.00 C 59.69 251.96 43.25 242.91 39.00 253.00
C 43.69 246.36 57.69 255.27 62.25 260.75 C 66.81 266.23 72.10 275.22 75.77 282.23 C 79.44 289.24 83.29 298.89 89.00 305.00
C 85.82 304.59 83.28 306.69 80.00 306.00
C 78.71 302.67 74.44 302.98 72.00 299.00
C 73.18 301.03 74.21 303.76 75.00 306.00
C 75.80 307.26 77.91 308.07 78.00 310.00
C 89.30 305.37 106.74 303.00 116.00 311.00
C 137.82 315.29 156.48 336.68 180.07 330.07 C 203.67 323.47 219.96 318.54 237.75 300.75 C 255.54 282.97 261.98 260.00 258.00 235.00
C 254.73 224.29 252.45 212.29 250.00 201.00
C 237.83 200.88 225.38 200.01 215.00 206.00
M 116.00 299.00 
C 129.16 297.36 143.24 297.53 154.69 306.31 C 166.15 315.08 182.23 311.42 188.92 299.92 C 195.61 288.42 205.39 283.80 211.75 272.75 C 218.12 261.71 225.61 251.66 228.00 239.00
C 229.95 249.04 225.43 262.51 220.69 271.69 C 215.96 280.88 211.26 289.25 203.25 296.25 C 195.24 303.25 190.68 312.06 180.77 316.77 C 170.86 321.48 156.75 315.84 147.77 310.23 C 138.80 304.62 125.92 300.75 116.00 299.00
M 125.00 254.00 
C 115.58 256.31 104.18 254.35 94.00 255.00
C 103.42 252.69 114.82 254.65 125.00 254.00 Z"/>
</g>
<g fill="#9DAA90" fill-opacity="1.00" stroke="None">
<path d="
M 258.00 235.00 
C 261.98 260.00 255.54 282.97 237.75 300.75 C 219.96 318.54 203.67 323.47 180.07 330.07 C 156.48 336.68 137.82 315.29 116.00 311.00
C 113.35 310.48 110.79 310.39 108.00 310.00
C 111.08 311.36 113.90 315.61 117.70 316.31 C 121.49 317.00 118.35 320.88 118.00 320.00
C 128.93 324.77 135.27 335.49 147.69 339.31 C 160.12 343.12 173.16 348.98 187.00 349.00 C 200.84 349.02 216.41 347.00 228.07 341.07 C 239.74 335.15 247.29 328.11 256.75 319.75 C 266.21 311.39 272.94 304.75 282.25 296.25 C 291.56 287.75 299.71 282.46 310.75 275.75 C 321.79 269.03 339.22 267.60 352.00 267.00
C 347.47 263.42 342.08 260.74 338.00 257.00
C 322.86 249.26 303.30 246.33 289.23 236.77 C 275.16 227.21 262.46 217.02 256.00 201.00
C 254.40 200.57 253.54 202.37 252.00 202.00
C 254.10 213.15 256.21 223.73 258.00 235.00 Z"/>
</g>
<g fill="#999189" fill-opacity="0.94" stroke="None">
<path d="
M 150.00 212.00 
C 151.07 214.06 154.12 212.53 156.00 213.00
C 155.80 210.38 153.72 208.76 154.00 206.00
C 152.09 207.11 152.94 210.45 154.00 212.00
C 152.67 211.99 151.33 212.01 150.00 212.00 Z"/>
</g>
<g fill="#927A68" fill-opacity="0.93" stroke="None">
<path d="
M 201.00 213.00 
C 202.79 212.77 206.58 211.98 208.00 211.00
C 208.28 210.46 208.49 209.41 209.00 209.00
C 205.79 210.02 203.55 211.22 201.00 213.00 Z"/>
</g>
<g fill="#A99F97" fill-opacity="0.93" stroke="None">
<path d="
M 199.00 213.00 
C 193.07 212.77 188.02 214.27 182.00 213.00
C 188.70 215.73 192.39 216.37 199.00 213.00 Z"/>
</g>
<g fill="#000000" fill-opacity="0.00" stroke="None">
<path d="
M 0.00 432.00 
L 195.00 432.00
C 195.00 431.50 195.00 431.00 195.00 431.00
C 187.27 431.00 180.35 429.34 173.00 428.00
C 169.37 427.34 165.59 426.96 162.00 426.00
C 76.54 403.17 7.28 325.82 0.00 237.00
L 0.00 432.00 Z"/>
</g>
<g fill="#000000" fill-opacity="0.00" stroke="None">
<path d="
M 272.00 425.00 
C 263.04 427.57 254.40 428.86 245.00 430.00
C 242.82 430.26 239.84 431.06 237.00 431.00
C 236.99 431.00 237.00 432.00 237.00 432.00
L 432.00 432.00
L 432.00 237.00
C 425.08 325.99 356.33 400.79 272.00 425.00 Z"/>
</g>
<g fill="#F8DCC6" fill-opacity="0.97" stroke="None">
<path d="
M 116.00 299.00 
C 125.92 300.75 138.80 304.62 147.77 310.23 C 156.75 315.84 170.86 321.48 180.77 316.77 C 190.68 312.06 195.24 303.25 203.25 296.25 C 211.26 289.25 215.96 280.88 220.69 271.69 C 225.43 262.51 229.95 249.04 228.00 239.00
C 225.61 251.66 218.12 261.71 211.75 272.75 C 205.39 283.80 195.61 288.42 188.92 299.92 C 182.23 311.42 166.15 315.08 154.69 306.31 C 143.24 297.53 129.16 297.36 116.00 299.00 Z"/>
</g>
<g fill="#E2B191" fill-opacity="0.99" stroke="None">
<path d="
M 39.00 253.00 
C 30.45 273.29 60.98 287.19 72.00 299.00
C 74.44 302.98 78.71 302.67 80.00 306.00
C 83.28 306.69 85.82 304.59 89.00 305.00
C 83.29 298.89 79.44 289.24 75.77 282.23 C 72.10 275.22 66.81 266.23 62.25 260.75 C 57.69 255.27 43.69 246.36 39.00 253.00 Z"/>
</g>
<g fill="#F6D6BF" fill-opacity="0.88" stroke="None">
<path d="
M 125.00 254.00 
C 114.82 254.65 103.42 252.69 94.00 255.00
C 104.18 254.35 115.58 256.31 125.00 254.00 Z"/>
</g>
<g fill="#C2C4AD" fill-opacity="0.97" stroke="None">
<path d="
M 118.00 320.00 
C 110.53 316.74 99.68 319.77 92.00 320.00
C 100.68 323.00 110.76 324.45 119.00 330.00
C 120.68 330.82 122.36 331.28 124.00 332.00
C 137.52 337.90 149.34 343.25 163.08 348.92 C 176.81 354.60 198.26 356.78 213.01 354.01 C 227.75 351.24 239.10 342.57 250.70 334.70 C 262.30 326.82 270.14 316.13 280.75 307.75 C 291.36 299.37 300.65 288.13 312.23 282.23 C 323.81 276.33 341.71 264.59 355.00 270.00
C 349.65 264.65 344.74 260.45 338.00 257.00
C 342.08 260.74 347.47 263.42 352.00 267.00
C 339.22 267.60 321.79 269.03 310.75 275.75 C 299.71 282.46 291.56 287.75 282.25 296.25 C 272.94 304.75 266.21 311.39 256.75 319.75 C 247.29 328.11 239.74 335.15 228.07 341.07 C 216.41 347.00 200.84 349.02 187.00 349.00 C 173.16 348.98 160.12 343.12 147.69 339.31 C 135.27 335.49 128.93 324.77 118.00 320.00 Z"/>
</g>
<g fill="#9DAA90" fill-opacity="1.00" stroke="None">
<path d="
M 124.00 332.00 
C 144.27 344.04 161.84 364.08 186.00 368.00
C 199.35 368.91 218.43 368.98 230.02 365.02 C 241.62 361.07 249.67 354.35 257.75 345.75 C 265.83 337.15 272.54 329.32 279.25 320.25 C 285.95 311.17 292.80 302.85 300.75 294.75 C 308.70 286.65 319.11 279.50 329.08 276.08 C 339.04 272.66 366.67 269.34 362.00 287.00
C 365.03 280.30 359.64 274.64 355.00 270.00
C 341.71 264.59 323.81 276.33 312.23 282.23 C 300.65 288.13 291.36 299.37 280.75 307.75 C 270.14 316.13 262.30 326.82 250.70 334.70 C 239.10 342.57 227.75 351.24 213.01 354.01 C 198.26 356.78 176.81 354.60 163.08 348.92 C 149.34 343.25 137.52 337.90 124.00 332.00 Z"/>
</g>
<g fill="#78876F" fill-opacity="0.99" stroke="None">
<path d="
M 186.00 368.00 
C 160.68 366.28 139.16 342.87 119.00 330.00
C 110.76 324.45 100.68 323.00 92.00 320.00
C 99.68 319.77 110.53 316.74 118.00 320.00
C 118.35 320.88 121.49 317.00 117.70 316.31 C 113.90 315.61 111.08 311.36 108.00 310.00
C 97.22 308.49 86.49 308.23 77.00 311.00
C 66.31 314.12 69.64 327.17 73.75 335.25 C 77.85 343.34 87.31 346.24 96.00 347.00
C 96.96 346.83 98.47 346.09 100.00 346.00
C 120.49 344.81 135.18 362.04 150.00 372.00
C 158.57 375.92 169.12 379.56 178.00 382.00
C 184.10 382.42 191.07 382.63 197.00 384.00
C 197.47 384.11 198.50 384.00 199.00 384.00
C 209.86 384.00 226.39 386.88 236.00 382.00
C 239.24 378.54 243.70 378.03 248.00 377.00
C 256.58 374.94 262.94 369.69 271.00 367.00
C 274.39 364.40 276.50 359.68 278.00 356.00
C 280.75 349.23 283.34 345.28 288.75 339.75 C 294.16 334.23 301.51 334.49 308.00 332.00
C 325.14 325.43 312.28 296.56 333.00 298.00
C 331.87 290.58 324.40 290.64 320.00 294.00
C 319.22 291.35 321.94 289.27 320.00 287.00
C 323.12 286.91 326.85 286.87 329.00 289.00
C 330.34 289.36 332.71 289.83 334.00 290.00
C 339.88 290.79 351.08 294.13 358.00 291.00
C 359.48 289.96 361.19 288.79 362.00 287.00
C 366.67 269.34 339.04 272.66 329.08 276.08 C 319.11 279.50 308.70 286.65 300.75 294.75 C 292.80 302.85 285.95 311.17 279.25 320.25 C 272.54 329.32 265.83 337.15 257.75 345.75 C 249.67 354.35 241.62 361.07 230.02 365.02 C 218.43 368.98 199.35 368.91 186.00 368.00 Z"/>
</g>
<g fill="#A3957F" fill-opacity="0.99" stroke="None">
<path d="
M 308.00 332.00 
C 307.91 333.16 309.73 334.82 310.00 336.00
C 311.55 342.74 309.25 352.98 305.00 358.00
C 316.36 353.38 339.07 346.31 344.01 333.01 C 348.95 319.70 337.43 296.31 329.00 289.00
C 326.85 286.87 323.12 286.91 320.00 287.00
C 321.94 289.27 319.22 291.35 320.00 294.00
C 324.40 290.64 331.87 290.58 333.00 298.00
C 312.28 296.56 325.14 325.43 308.00 332.00 Z"/>
</g>
<g fill="#A0AC93" fill-opacity="0.96" stroke="None">
<path d="
M 334.00 290.00 
C 341.35 293.10 344.40 295.94 353.00 294.00
C 354.49 293.52 356.62 291.96 358.00 291.00
C 351.08 294.13 339.88 290.79 334.00 290.00 Z"/>
</g>
<g fill="#C9B89E" fill-opacity="0.96" stroke="None">
<path d="
M 77.00 311.00 
C 86.49 308.23 97.22 308.49 108.00 310.00
C 110.79 310.39 113.35 310.48 116.00 311.00
C 106.74 303.00 89.30 305.37 78.00 310.00
C 77.91 308.07 75.80 307.26 75.00 306.00
C 75.77 308.19 75.00 309.89 77.00 311.00 Z"/>
</g>
<g fill="#85947B" fill-opacity="0.89" stroke="None">
<path d="
M 186.00 368.00 
C 161.84 364.08 144.27 344.04 124.00 332.00
C 122.36 331.28 120.68 330.82 119.00 330.00
C 139.16 342.87 160.68 366.28 186.00 368.00 Z"/>
</g>
<g fill="#B1AE9A" fill-opacity="0.97" stroke="None">
<path d="
M 278.00 356.00 
C 280.56 352.11 287.43 344.86 290.75 341.75 C 294.07 338.64 306.55 331.12 310.00 336.00
C 309.73 334.82 307.91 333.16 308.00 332.00
C 301.51 334.49 294.16 334.23 288.75 339.75 C 283.34 345.28 280.75 349.23 278.00 356.00 Z"/>
</g>
<g fill="#D6C5B2" fill-opacity="0.99" stroke="None">
<path d="
M 278.00 356.00 
C 276.50 359.68 274.39 364.40 271.00 367.00
C 282.27 363.24 294.22 362.39 305.00 358.00
C 309.25 352.98 311.55 342.74 310.00 336.00
C 306.55 331.12 294.07 338.64 290.75 341.75 C 287.43 344.86 280.56 352.11 278.00 356.00 Z"/>
</g>
<g fill="#DCDFD3" fill-opacity="0.92" stroke="None">
<path d="
M 96.00 347.00 
C 127.24 349.75 146.33 379.84 178.00 382.00
C 169.12 379.56 158.57 375.92 150.00 372.00
C 132.51 364.01 120.09 346.99 100.00 346.00
C 98.47 346.09 96.96 346.83 96.00 347.00 Z"/>
</g>
<g fill="#A4AC9B" fill-opacity="0.89" stroke="None">
<path d="
M 150.00 372.00 
C 135.18 362.04 120.49 344.81 100.00 346.00
C 120.09 346.99 132.51 364.01 150.00 372.00 Z"/>
</g>
<g fill="#BDC1B4" fill-opacity="0.91" stroke="None">
<path d="
M 236.00 382.00 
C 235.75 382.27 236.00 383.00 236.00 383.00
C 239.87 380.82 244.11 378.66 248.00 377.00
C 243.70 378.03 239.24 378.54 236.00 382.00 Z"/>
</g>
<g fill="#9C9179" fill-opacity="0.99" stroke="None">
<path d="
M 199.00 384.00 
C 202.68 386.95 209.55 392.33 215.00 390.00 C 220.45 387.67 230.98 392.24 235.00 388.00
C 235.53 386.16 236.22 385.13 236.00 383.00
C 236.00 383.00 235.75 382.27 236.00 382.00
C 226.39 386.88 209.86 384.00 199.00 384.00 Z"/>
</g>
<g fill="#B9AA95" fill-opacity="0.99" stroke="None">
<path d="
M 208.00 399.00 
C 210.95 398.84 216.05 397.60 218.69 399.31 C 221.34 401.02 225.44 403.67 228.00 403.00
C 229.55 400.15 231.75 396.84 233.00 394.00
C 233.51 391.99 234.43 389.99 235.00 388.00
C 230.98 392.24 220.45 387.67 215.00 390.00 C 209.55 392.33 202.68 386.95 199.00 384.00
C 198.50 384.00 197.47 384.11 197.00 384.00
C 187.40 390.68 201.92 399.34 208.00 399.00 Z"/>
</g>
<g fill="#DDC1A7" fill-opacity="0.94" stroke="None">
<path d="
M 228.00 403.00 
C 222.03 413.94 231.13 424.14 242.00 426.00
C 234.27 433.57 222.91 425.49 214.00 425.00
C 213.04 420.36 217.03 414.95 214.00 411.00
C 214.24 414.47 213.04 416.03 212.00 419.00
C 211.32 420.93 211.58 423.30 210.00 425.00
C 211.77 424.79 213.37 426.54 214.00 428.00
C 221.91 428.43 229.01 430.84 237.00 431.00
C 239.84 431.06 242.82 430.26 245.00 430.00
C 243.31 429.02 247.36 426.98 246.00 425.00
C 241.10 425.05 236.03 422.69 233.00 419.00
C 224.15 412.55 230.69 403.19 233.00 394.00
C 231.75 396.84 229.55 400.15 228.00 403.00 Z"/>
</g>
<g fill="#D8A881" fill-opacity="0.98" stroke="None">
<path d="
M 208.00 399.00 
C 210.97 400.54 213.29 408.15 214.00 411.00
C 217.03 414.95 213.04 420.36 214.00 425.00
C 222.91 425.49 234.27 433.57 242.00 426.00
C 231.13 424.14 222.03 413.94 228.00 403.00
C 225.44 403.67 221.34 401.02 218.69 399.31 C 216.05 397.60 210.95 398.84 208.00 399.00 Z"/>
</g>
<g fill="#D0C9B9" fill-opacity="0.96" stroke="None">
<path d="
M 162.00 426.00 
C 165.59 426.96 169.37 427.34 173.00 428.00
C 185.51 427.78 200.45 427.26 214.00 428.00
C 213.37 426.54 211.77 424.79 210.00 425.00
C 211.58 423.30 211.32 420.93 212.00 419.00
C 205.08 422.74 190.36 416.52 183.00 419.00 C 175.65 421.49 164.84 418.15 162.00 426.00 Z"/>
</g>
<g fill="#D6CEC0" fill-opacity="0.93" stroke="None">
<path d="
M 245.00 430.00 
C 254.40 428.86 263.04 427.57 272.00 425.00
C 263.57 414.28 245.44 421.76 233.00 419.00
C 236.03 422.69 241.10 425.05 246.00 425.00
C 247.36 426.98 243.31 429.02 245.00 430.00 Z"/>
</g>
<g fill="#FCF7F3" fill-opacity="0.89" stroke="None">
<path d="
M 173.00 428.00 
C 180.35 429.34 187.27 431.00 195.00 431.00
C 197.52 431.00 201.30 430.22 203.00 432.00
L 237.00 432.00
C 237.00 432.00 236.99 431.00 237.00 431.00
C 229.01 430.84 221.91 428.43 214.00 428.00
C 200.45 427.26 185.51 427.78 173.00 428.00 Z"/>
</g>
<g fill="#FDF8F6" fill-opacity="0.32" stroke="None">
<path d="
M 195.00 432.00 
L 203.00 432.00
C 201.30 430.22 197.52 431.00 195.00 431.00
C 195.00 431.00 195.00 431.50 195.00 432.00 Z"/>
</g>
</svg>